<mxfile host="app.diagrams.net" modified="2023-05-16T14:08:02.131Z" agent="Mozilla/5.0 (Windows NT 10.0; Win64; x64) AppleWebKit/537.36 (KHTML, like Gecko) Chrome/113.0.0.0 Safari/537.36" etag="kDv5wGM8wcW3-n7BhwI9" version="21.3.0" type="device">
  <diagram name="Page-1" id="wXuoXgS92D-ODR6mtIqp">
    <mxGraphModel dx="1434" dy="764" grid="1" gridSize="10" guides="1" tooltips="1" connect="1" arrows="1" fold="1" page="1" pageScale="1" pageWidth="827" pageHeight="1169" math="0" shadow="0">
      <root>
        <mxCell id="0" />
        <mxCell id="1" parent="0" />
        <mxCell id="_yOJiTir0vfg7I-NglbO-1" value="" style="shape=image;verticalLabelPosition=bottom;labelBackgroundColor=default;verticalAlign=top;aspect=fixed;imageAspect=0;image=data:image/png,iVBORw0KGgoAAAANSUhEUgAABMUAAAHUCAIAAAC1fgivAAAAAXNSR0IArs4c6QAAAARnQU1BAACxjwv8YQUAAAAJcEhZcwAADsMAAA7DAcdvqGQAAAASdEVYdFNvZnR3YXJlAEdyZWVuc2hvdF5VCAUAAIriSURBVHhe7b3fq2XHlec5f4vQi/Vg7Aejl6L8lk8qqEIyGLuZ0Y9GyNW0EYONxwlt05IqlSTjcZsRdNkS07RHtiRIKIxMqrpmBreHsjuxalJILjRV4zZjLGyXU3T1qMBTokegiRU/VqyIHXHOuXudc++5934+fJH2iRM7duyI745Y65yb9/5XHwIAAAAAAACcnE355D333ocQQgghhBBCCA21JZ/MRwAAAAAAAAAt5JMAAAAAAACwBvJJAAAAAAAAWAP5JAAAAAAAAKyBfBIAAAAAAADWQD4JAAAAAAAAayCfBAAAAAAAgDWQTwIAAAAAAMAayCcBAAAAAABgDeSTAAAAAAAAsAbySQAAAAAAAFgD+SQcnH/3v/4oKL8AAAAAAICLAvkkHJxLnk+m20dnpTwNAAAAAHAAyCfh4FzysJ6U5gxh8AEAAAAOCvkkHBzyyXwEpw6DDwAAAHBQyCfh4JBP5iM4dRh8AAAAgINCPgkHh3wyH8Gpw+ADAAAAHBTySTg45JP5CE4dBh8AAADgoJBPwsEhn8xHcOow+AAAAAAHZX/55Hs//8F3nv7cH/z+R+69L5z4sSuPPPn17//1e/lNH+++8lho88ad/PJg/Obmo6Hzj928m1+fHz5498df/24dn3Qj19/IL88a8sl8BKcOgw8AAABwUPaTT/7y1r944KMh5fv4/X/w+a9+/Rtf+/qNJz8dE8uPfua5t97PldZDPrmZd7/3eDs+5JPHBCnNGcLgAwAAAByUPeSTd//sCUkdrzz9g9/kksR7/+EbkmR+9InvteXHy7nNJ08p314L+WQ+glOHwQcAAAA4KO588u//4smYNL7yTi6w/PLlJ0IjH3nqtv87ytOAfPIw7JZPvnEtDH5zF+m+nnhFPo/o3g1vpfKGuzfFb622D0s669Gb74bjO9flrGuvp3f2w5Z7f/3GiXorPYzfPEu3T+5VOetovrg+BcgnAQAAAA6KN59Msfgnn3s7v+54//a1Kw9+9gvf/2V6GUPnFLhXmsKYQjx282d/+90nf+/j99x7/5U//u5fv9/mSzHrk/q/+OG1P37gYxKFh2o3vve3XdL6/s9evfG5K/dLmP6JBz733O2772z7KdAun9zxQr+5/fwXPnO//LivXOizX/g3P655Tr6du7/7+StfSXXuv/LfPP3K2/+Q31dMIx/5vc88+a3bdz/I72Q+ePfOzXI7H/39B/Uqqc9VcZRSob3TcPp3nv5sOj3dRdOH0s8P3vnB9c9f+YQ09bErn7/26s+bW33v7e+Vd0MfHugbmbKPfNIyKx/mk0FbkjSbTx6CDfce09favdiTwX1ZyCdPBPkkAAAAwEFx5pP/8OdPhoD441/bMUDdMZ/8o888+NGPP/Dkja/9yRcfvH77/Zw/NPnkZ//kxqMf/fj9n/7ita9/46uPp18CZAPx9+9cf0ByiU985sk/+cbXvvJESNU+cuWBT4aSE+aTWy4UctSQBIZ89Svf+NrXv3HtC5+RtLP+iG/s+T+5ce3xj9ue3HPvA//dv6uD8P7rN65Is/c/+IUboZF0lY/8wTfu/C5X+PCDd14JLUiq+YT889SvPJKuIt8Jv/fGt7/+9KOfDKd/5kn5l6t/Ial7l0/+7o2v/YGcHlLEeHrqw8cfvanfKdd+SjZb+2km63dvXLuSUlnppN7I197Y/t3zPvJJfTcVZnVeWmSGtgV9mdRlcfms7vvJ9FZUamTY4PCtyvTexfn2fgVNF4X4aJirC+N8stZsvlxNtxMlF6q3c/JE9Ei4++oXP/vc7ffspy2/e/v5P/78t3+eX3WQTwIAAAAcFGc++fNv/1EITwcx9Jgd88l773vw39rwMBWWyDslS006lH+w9pP/unxN+tafhtTxI4/f/KXGnXd/+FVJuk6cT26+0J2vhzztMzaWff/fP/2x33vwyT9Lp+Tb+cjj3/2ZJocpBf3o0z9OidjvfvjV8PKTX/xevciHd//90yHD/OT1nKv98jufCY1cuV7D6JyC/vPvx1+g245PoMknQ2p9Re7i35ovG9+7LcnhvQ+U75W1n2bE0te5n/zTv46v7v5ZuPGPf/Xfm+zx59998BMPPPD17QnlceSTzYlR2bezfNIkk7V+c4nGMPZaDbN7b1LHJfJclNbM8SCflHft02Huq5hZj+Vgw0WPnvSvta889cP8Bf7v3n7u0+EZnH6uQT4JAAAAcFCc+WSK8gcx9Jhd88kH228bUmGbT5Y8J9NmUD9+KoSYXSMfvvfq5yUr2BBMN+nBLhdK6ceVa385+7HP1PMrz72VXydSfvjkLTnrvVtfDMefe7VrIZ349A8kSH77uZAJa/6Z+Yfv/fP7r/zRN+5IYTs+AdvJ93/41XQX9iudUPyXT8u3oPlGSj+bH1tums151HdM1rszJ8knl0rustlm6tjAdamTvWrSVSc314y3n2+tzycbb9c6ZmztiRuY3Lvcxfzc/l1NIxf5pNS030lKuVSQ/tvyRHn3HPPLl2NK+aW/+OV78Yv3jz74tdenn2mQTwIAAAAcFGc++c4r/6TG3NvZNZ+88eMm+cmFTT755F80f9uySfNiAmbzq8Q7Nz9b64xIjXT55KYLffj+G9+IP6oa/97mn3z3e2+98/6Gnitvx69Pvy6NpATmwS/Ij8taPflQKI8J3t3vyxUf/37u1YDFVWwnf/7dB0yHKynPzDebWvjinze32g379+Vr1dDt33vwc1/5N6/85c/vTmP4nrPMJ8tsmkQxERuM79q0sFbrzFCpwxIrbzf/qnyyzwY1D1zkk6NxCxWk/5MhWprhvPHLP/t8/PfM9239i0TkkwAAAAAHxZlPvv+Dr4Sobt//frJPwLrEpsnoMk1hjLA//d38S4CU4YmWLoXYfiHhvbdvfjX9sc2s+x/8ys3y062x58ucxDSSEpiZamKzodvLQbOnpO/lBqfXhGqnYQ/85vZz+fcSJX38/sf/9MeLfGvJSfJJ24fUgRPnk8MkLb21j3xSm7IDuInZvWtmOEIa3z2ftDUz0v8Lm08GfnnrX1z56BPf7n8LVw/5JAAAAMBBceaT+cc1p7/f9cN/+N6XHvjsF77xg1/EV6eUT06+nxyeaOlSiO0XMrz/7s9e//63/+SLD8Zff/qR/K1m7PlHv9H35I1vhPwz/SPMmMD0P5rbcHrfT24cduWD93/51g9f+dbTj8ov4L3vniv9T9IuOYZ8MufVZXJTzTQs9qyaT+YrllTNpuVpeKPG12qZ3ru02Q9vyRLlHm3jmkYu8sm+ZmGcZ8pZSzNcXMgnAQAAAA6KN5/88P3b8utkPvrFP//7XNDw9p/Kj4PqP96LQfkDze/a+fBn//ZBE5cPc5i2cHual7413dO/n9x0obef//SD9z/03Z/FF5kPbDabev6Zb6d0upD+/WT63TYpmXmw/3eJ73z7oY/f/wdP/7l0Jf37yRt32rTtr5+78rErT8R7XAya7eQJ/v3khmF/98+/8uCVT6R/z6n8w/f+eagwyOs6DpNPRrWzYzPDBeasrNxze5bJJ3O5kd6pNmXv3fa2YcO9x8vVW05XNBlsac0cL/LJtmbsRrqXWiFQclcpbAftYkM+CQAAAHBQ3PlkiFDjb1y858rTP2gj6ffe/u7n5Ms680tBU54TEjDNbcqvXd1rPim//rT//a75N5ouTrSkRk6QT6Zf/NP+Pp734u9rfSj9tG1OPJqe/CL+ftdP3oi/SufDD//+L56UhPyJV0zO+cubMqTlS86Qcqff72p+hWX6JbH5u8F3v/d4uIpJ9tpO7vz7XTcNe8qBm9/H88HPn38o9Lz7RUED9p1P5g8mlrOZ8rFJPhnI0xFVL2TPsvlkIL2VZL/ry+VqFcH2tmHzvdtL9FOgt2maHeSTbSP29tPtNC0kb3QXuriQTwIAAAAclD3kkyFj+dl30q/HyH+n8Wtff/pzf5D+SeH9nzN/bCP+vUr5Icn0dxSvyV/w//gDX/riZ/edT8YkSv7+pP1rileuxL9I2Z1oSY2cIJ8ML9Nvqfn4/Y8/Lb9H5yvpz/0/cC3/wsnU8weuXKm3HP90ZPMbKd/7S/nrIN3fn7znE5+vf0Gk/P3Jjz0Uhzf97UfTSPyzJfdd+eNw+gn+/uSD//rt0okdhv39N74WE/Lchz/54oPy867NH1OZsVs+eZ5I+ds8cW0gpTlDGHwAAACAg7KXfDLym9vf/srnH7hyfzgrSH4L6PWbdxbf1Xz4wbs//lZKRSS9ufa/vZOSn33nk4H3f/bqjc+l/nziM09+5433/oN829P9tG1DauRE+WTg7u3nv/BITCNDjvf7D37h3/zg5/p1Ze75j997+5WvpExSKvx4OSy/MY184oHPXf/+Xze/alXG7c53nv5sup1lI3d/eC3/TqD4O1qXnYzDrqc/8Mc3vve2/QslOwx74Hc//971zz+Q/tnkvfeH9PWV13dNqC5WWJ9GZvBV5BBSmjOEwQcAAAA4KPvLJ4+fmE8++mc7pUB7YpinXTouVD5ZfgZ1xy8nA6Q0ZwiDDwAAAHBQLmY++df/+srHrjzyvP2ls/lHRvtfjXNgyCeFC5VPnhxSmjOEwQcAAAA4KBf0+8mff/ez8i8Mfz/9i0T5x37xNwM9+C39F4OnA/mkQD6Zj+DUYfABAAAADsrF/XlX+y8ST/KP/fYK+aRAPpmP4NRh8AEAAAAOymX695NwRpBP5iM4dRh8AAAAgINCPgkHh3wyH8Gpw+ADAAAAHBTySTg45JP5CE4dBh8AAADgoJBPwsEhn0RnqDwNAAAAAHAAyCfh4BDWAwAAAABcSMgnAQAAAAAAYA3kkwAAAAAAALAG8kkAAAAAAABYA/kkAAAAAAAArIF8EgAAAAAAANZAPgkAAAAAAABrIJ8EAAAAAACANZBPAgAAAAAAwBrIJwEAAAAAAGAN5JMAAAAAAACwBvJJAAAAAAAAWMOWfBIhhBBCCCGEEBrqInw/eV76CUcLFgIP+Ac84B/wkPyDi2AdOAc8qH/IJwGwELjAP+AB/4CH5B9cBOvAOeBB/UM+CYCFwAX+AQ/4Bzwk/+AiWAfOAQ/qH/JJACwELvAPeMA/4CH5BxfBOnAOeFD/kE8CYCFwgX/AA/4BD8k/uAjWgXPAg/qHfBIAC4EL/AMe8A94SP7BRbAOnAMe1D/kkwBYCFzgH/CAf8BD8g8ugnXgHPCg/iGfBMBC4AL/gAf8Ax6Sf3ARrAPngAf1zwXMJ996/pEv3fp1fnH31S99qnt59dbdX9+6+sg338xlADOrBy/94dVX/y6/2s7f3bp6ovpwMcA/4AH/gIfkn2Ug9Ief6vTcWx8S/EAP6w94UP9cwHxSPP38X+UXbz73h1evfkktLi/DMUsqNIytfvfVL1197ptXr966mwu2wnp6OcE/4AH/gIfkn7GLPvyrb37KRjsEP9DD+gMe1D8X8edd5UvI596Kh289H5bOsJ7mRyLYPX5XGZfUW/LV5R/2317qx3gRyT/DE5UKT/BcwfliaPXkFlki9eOJaK1vls99664cfBId8s3nWU8vI/gHPOAf8JD8M3TROJ8k+AED6w94UP9cyH8/GVbMtPzlg5hVppf1IPtenoRUuS679Vv++JzUU/S5govFyOrqomCMssXGTTftwdUksbD3FVwm8A94wD/gIfln5KLAIJ/MJiH4gQjrD3hQ/1zM38cTvC6mD0bXlVFWQ30wxPfpqYiF8bGR1dM+NvHYFDaf08DFYmB1NU+0U96PxRhpkY3eUHfpGmqP4dKAf8AD/gEPyT8DFwmDfJLgByysP+BB/XMx80mxdVj+3nwur5vp2ahPiCypZYW1S2r+Hj+qFJbHgyX1ArO0kEy39UOaet1rA8UbUlPXUNbTSwn+AQ/4Bzwk/wwCIWGQTxL8gIX1Bzyofy5oPhkWyquv3tKPVWQNfe4tTS9nS+rySWBJvRwsLNTtwcUko/W0cQ7r6aUE/4AH/AMekn9GgVCg8xLBD/Sw/oAH9c9FzSfDonn1SyGHzC8/fOv5q998/jl5JITRkmoeofjZTDyXJfVy0FsozLuum4IYJv8E9XI9rc6RaqynlxD8Ax7wD3hI/hkFQoEa2ETEJOVleIvgB1h/wIX656Lmk3EFtM5unpDhkpo+fTE/7xFgSb0cdBZ66/n+1w/kXXa8niZ3iXPk9+axnl4+8A94wD/gIflnGAjtlk8S/FxqWH/Ag/rnwuaTALuDhcAD/gEP+Ac8JP/gIlgHzgEP6h/ySQAsBC7wD3jAP+Ah+QcXwTpwDnhQ/5BPAmAhcIF/wAP+AQ/JP7gI1oFzwIP6h3wSAAuBC/wDHvAPeEj+wUWwDpwDHtQ/5JMAWAhc4B/wgH/AQ/IPLoJ14BzwoP4hnwTAQuAC/4AH/AMekn9wEawD54AH9Q/5JAAWAhf4BzzgH/CQ/IOLYB04Bzyof8gnAbAQuMA/4AH/gIfkH1wE68A54EH9Qz4JgIXABf4BD/gHPCT/4CJYB84BD+of8kkALAQu8A94wD/gIfkHF8E6cA54UP+QTwJgIXCBf8AD/gEPyT+4CNaBc8CD+od8EgALgQv8Ax7wD3hI/sFFsA6cAx7UP+STAFgIXOAf8IB/wEPyDy6CdeAc8KD+IZ8EwELgAv+AB/wDHpJ/cBGsA+eAB/UP+SQAFgIX+Ac84B/wkPyDi2AdOAc8qH/IJwGwELjAP+AB/4CH5B9cBOvAOeBB/UM+CYCFwAX+AQ/4Bzwk/+AiWAfOAQ/qH/JJACwELvAPeMA/4CH5BxfBOnAOeFD/kE8CYCFwgX/AA/4BD8k/uAjWgXPAg/qHfBIAC4EL/AMe8A94SP7BRbAOnAMe1D/kkwBYCFzgH/CAf8BD8g8ugnXgHPCg/iGfBMBC4AL/gAf8Ax6Sf3ARrAPngAf1D/kkABYCF/gHPOAf8JD8g4tgHTgHPKh/yCcBsBC4wD/gAf+Ah+QfXATrwDngQf1DPgmAhcAF/gEP+Ac8JP/gIlgHzgEP6h/ySQAsBC7wD3jAP+Dhgw8+CP/91a9+nV4CnAjWH/Cg/iGfBMBC4AL/gAf8AwBnBesPeFD/kE8CYCFwgX/AA/6BFfzN3/7HP/3Wt//Z57/80KcfCwoH4WUozG8D7AbrD3hQ/5BPHh+v3wh3dM/1N/JLy29uPnrvfY/efDe/3ECoOWxhM3LpG3fyixnvvvLYbn04P1z49fTuzSemphpi/CPnPnbzbnox5o1r99537fX8ItTX40vCkfvnzvX7ZPaTtkzllB1ssA/iEjf2z4a3duPO9Sde+U0+PipO1z+ygIcr7j6S5oneYfFvN5E1Yx4neurYdVvbhnUpbbitTmCztf1xElLHP/rUI0OFt3IlJ2kiFncn68kpLAUnokziwpzN3nTmnOxROi3CuOWjs0RmKk3iaB53Q2yw10V+6quMbIu121uD5yFxQfasIWe0BCnh3tMB+eTxER+JRwdrTY4DdnjS3AbdxBGtg/violmoR6bs2vXdl1qHf2IIcjz79+lwvP5ZRIQxtzzStEo4nH/2Hmrsj1P1j4zwjWu7pwSeGVkx5jGAs5eLjtVAbe3StOEulp2MlXfb4w661U75l898rcshO4UKuaqHOA7ddASOL5+UVGQyX8eUT3oepUNy5vtXysrMyMTccoXH9rzIb/BVoO/k4i52xLmGnM0SZFH/kE8eH/GRuHZ98W1AKL9+Y6O/lYM6TBonnzxP5EV28+JocfjnWLfMg3Ks/hnOYyw8rnDQcDj/7DnU2Cen6Z+cDOw+Gp4ZOfmYS/d6x9qFa+3StOEuhp3cteeOpXItG76ZtNrDt5Rx0II5uy9eyCdXcqyb4xnvX8NhiYUnjjP3vMhvCpmGT4EUnvhbSucacgZLUIf6h3zy+EiPxOvhcWoejODUa6/3/o72LcrmljqlsDi7bgzWeWLEazfzW/I8y6XrwzBqPCBnnfg5P27CDeaji4gufHpgsbMc1/TeP/Kpm5y1XLbUCWXPFv+Uc6+/sbjcptX5XBPuNx8dFZPN9e7rb8yeZTNlYbKeeOVmmlBppNggvZXXIp1rKU6YpSatLbP4yf6kUO1Dii3KoiSN6Old2DFe0yL2rdjn8bWOhtCrfHRw9BkcPoxmTtNG0D7R1TDdXASkJJqtbCLtmP+gv9zYnMtFxrLoXsD2sDYo7dSt7X/u7qJlp57El30jo/5ssOU++Ju//Y9d3hj0f/7N//V//+KX/+zzX+7Kvf+WMs1yHEY7d93CbncQUy6Ds1gl6suFeWy1KYvdqj1XZ6GSupGOk3vfqFNp7qIxkpYnV0swlt9qut30p7PQwhu2fbnH1Bkd1UX9hJx14445t+vAXgjN5qOzoLNT4d07r9vVaTI+gTo4acMyE7Grr0aNb/ZVfHcwF6+/YWvO9x2znly/Kce5e9augW4VWvp/PiynSLh6OiCfPD7k8QiPxHK5CXYR92hh+xxGY2XntS6M1i9nxbfyWcnT5vFLi1c83Nx4+2ycey6ahRqMZ7K1YrFgzWCXyMY/mkjExdGsWVI/tSaXyIugXWe7y/VXvzgcp3904ub0z7J56uMjb6bbtJbeKlMp0zqa/Xhc32qJ+2JpIdbM3chn7dT4aE1rT7F3dMT2Oz3/mEFoV/huSM3Dboe9GqZZIgLVHnKJYpv55fqrF+J1G+O1tNdt5zSaKp0Yq9npbu6iZWIM08P2okvvbXhrdI8ehl9O/vKdX/2n//T3X/mXN7py71eUZdDipLTjXO6rnUcbJzSrRJlW+7I0uOugpTm11tIJlWupdVvkLeveepa9buMBM6exTn2ruaj1W/tWc0fpZmO1Mp4RuUquk65SXLRsthltfWt/hEvkozPAjMOMbeNjh/3EvtrQ+AZfyXW3TERsantnYrXmqVGDNVbsbiE2GGvaOmeD+od88vgQp4oLZRlS94RCcYz1d+e86Mtcv3GYKY9sMGJ9SLY0vuX5P29cNAtZip0iMq11xsUJ+palMUb1YXWOYPxp3NLUsXZd+PACcZz+2WHA+2fZnNLMXaCbbvNWdYucbtaTGEg1y0imNVIg1owrT3xr3CVzVn9r3Vt2TVOaB+G4ODX/NOMmA1JnwcxvSzNZ1TB1ygRjpLqJtGO+WIjsLFuSbVRttWZp6ue6XqKpJiwsV2k6VqkDIufaCrbxRX8mttwXyy8hg2b5ZKicT1tH7b/Ml96auU0ptzfYvVWnIDZVp9KMzK6Dtpim7loTO9ke9q7QFlozG7pu24su+tm0Zu9IaU6RzqSW+xGwt9Pd9WxwfISnLB+dARvmLjMfn35C4zzm4erPmgzdpsGf921qGGVxuXpK72S5SrkLOTZnmRuUBhv/F/pBOH3UP+STx4e6rdpOHBNNNvR3tGNSfjCsw5anyLv6NDZvyRW7h2Tc+PAZO79cNAtVrBMEuw7O18TmLKm2xVdynBfBdhk1i/XShxeH4/TPYqdc0j/L3Xz12+H4LXXFYopn0U+/oZqay11TF6Xa2tJLeiNzmy0vejSckn/66bCPsz1uac4yhrHldmztJtKMuZmaneYidinvPlp53E/xbVPT9DPR37th0hlj+EJsJF9oMG4bbLk3Hvr0Y13SGDTLJ0PlfNo6+inO9zJaWOTe88iYVcLcu7ys419b3nXQBrtVnbhlI4q9bt9yvZEys71DpLz1hlxUujHpTyixlmix41k7M6hfO1Yul2la2BvhxvPRGbBh7hIbxqc1VWCTJfrZj2wc/HnfBrPfUXtSKHO3WFhsH7o7qm/Nrzi4hVNG/UM+eXy0j4R4S4yYnNT4W3xvVnDzGPQGzdWMYiNSrXlazOK1ufHhM3Z+CbeZjy4YcQnL82iUFqzFuqY0K5StVhe1Zrk0i2C34cnLWG25vF4gwpDmo2NiPr9K/yx3W6nZ2Gxr3VvqlmZ1EjozKGadyWhNNYyilWtrG9a0vtuVI3Zg6Hw+OiTx4e0HrUzEfFVvJtFWq6uEsU07ue2Yq4Wa+luJHSjLUb2oIO2nu+gWmcXtNHfRMjFGt+XlC8mlbR/s8QZb7g3NJ/+Hb3zzd7/7f3Op4b/8l//vpVf+bP/5ZBqQOFB2+mJhVD+z3WrQPpg7PcsNg9WsTlx3LYu9bu8KeyNtT4ofpJ+tN+SiYu/507TwntKMp1Yb1K8dK5fLbLCxg9DzfHQGzIcrMx+f5WjU+drRVxsHf4OvunlZsqxQetu6TpASs4aYO5LupbcG/s/UOmdFGNh0QD55fNRVMvtMnGTclv29eJaMTa3D5o/E8lnSZ2Bb45MGzysXzUKFuOd1q167Qo3XxGaFahay8ZpoFsHeOdktbf2LxpH6x6wkDbW8f5bNNHUbm7XBbM9bLDWLZSSz7JjUjCV6UKgura1tWNPmb81G4wg4Ff80D3WmDuno3UQziY1hytS0Y66bSD42Y54nd8P0jZlsbYs+z43d3kXL2Bimhb7CrA8nvq8V6M+7fua//tyN//65f/U/Ph/061//3X/+z//PC//Td8Lx1/7Vn/7TJ/7bVGd/P++akBsMN1unYzGq3QJiRkNe1pr1xF0HbbBbVadtaMRet3fFZFeSU8ya03hDuzHoT8ZaoqUZLu3MoL50LJXUe4wsBnwvnO3+NZkFLd8wPq2pAvVR3dFXGwd/QyOzidDy5apSvCTOae7X9qG7o/rWGr+dFuof8snjwxgxekj+FmVxmPF3t9DEt4pNrcOWblPLylvN06Jtbmt8hwf1PHHRLJQZLzTJVGKw5ZKXaU5sl7/0Vvd3a8wiuFhn4+k3rl04z1iO1T9DA8TCwUIRsG+ZOY0YG3Rv1UbMTixEpzWNZIYmSQvO4q0abdS3lvfVrGmLW45M3X72nIZ/FgMbqTNex7mjOVHq1wc5vdX9YVu7d/RjHk+/fqOL0SvjTlpf2fntLSrVcsttPwOTloWhMUxhuwDmpkb9sceJvod+zuT38VRkWOJXPWlA7FwLcr9lrOR4vEcEass7D9pimoxju2tZbGu9KzZ6Pl4r9rM/JfV20R/1ycZmB51Z1De3043wckb2wRnvX8ObMiM/H5/ePHEfSZOyq682DX5z3DOcZSmcbGR1j+udI1cpXe2uaN5a+K2wvNPTRv1DPnl8WN9EU5oFxbjNPG+B6GOt2TpsWTM/BnVFy+jita3x5qzzz0WzUEJmc7T31MmNPqlrorqr8U8XTsVlMZihXxDzhWLjzUVjyWQpvCAcr3/S4JvNJj7LdS7q/qczm+fazGnE2KB7y7jFzv7GeW+6EWvmJaU7y3p40XizQKlFW9vPd/Ej4hT8YyfaEscnDks7pHW47LD3i3+c+uqZiJxYLrQY89ZjAzp/CtIBLbFLUzxu571MfdfP7i5alsYYDEUzAuYWbH/6Extb7onh3wuZ5ZP7+Xsh7aDFCSr3tbxfmYI0+yZWEdpFw7a866ClkbfW0ga7a1nsdXtX6LXqKhGpfYh9q/ZorRLvt5w1v6N6lq1jO5OuUlzUNCvn1o61LeyNMJL56IxIy4K5L5m1aoMt49MMe52g+HK7rzY0vslXgbaTi7uITQ07E51cTozVxmvahrdM32J56f+ZEDqZDsgnj49mzeq80vo7PktZ6cdi9cT8VuPmXLM6Uhpvnha7eE0bX5x1/gn3mI8uEO3KaGkWprxmRS2sJTMuU189U7xkS6It22W0t1lb/6IR7jcfHSNx/MsULybCvJse81yhmdPA/K3Ygq5RdakZ/BFdS1xS8qVra3K6/YNv5vTYclszn97flH2rPgLlTs906x0SepWPDoVM2fjG41iVBz9Wy6ojb55oGUO7+KdJnG4iyzFvLjfBbj35ugazNLUdvnGnNt73M7BYlwrd5aKs8wPWq6HZZmlt+rPRlnti+RXl//6Xt/+PO291v/rV++VkIN5LNxT5BvXW7Og1cYJMjZmCdtHoWt550MxuZVaG/loWe93eFdJauZyd4jq5qZ/1z+HaiwqmP91AWWfWs4wJu86Y+nYEZHjNJj6cETfhovnoDLEeGMzmZHwC1YEb//7kJl/NGpfyia8y1gDNTEXGe5xQFsag5u9PBmpnwqWlfbNu28vVjnVL0KkTrp4OyCcBsNBB2b4on3fwz5guGHJymFjqGLhE/hFLnFncc2H4l898zaaOS4UKuSp4uLhrjoX9Czyof8gnAbDQIdlvUnGU4J9I/My1fr4bX+7xy8CLm4pcHv90H7fDaob/kDJpD99MQoJ8EmAb6h/ySQAsdBjyT5tc/K8j8E/B/OBQ0N4yh/LTQRc0FbkM/sk/+rXpp87gZPzN3/7HkDr+s89/+aFPPxYUDsJL77+ZBAv5JMA21D/kkwBYCFzgH/CAfwDgrGD9AQ/qH/JJACwELvAPeMA/4OGDDz4I//3Vr36dXgKcCNYf8KD+IZ8EwELgAv+AB/wDHpJ/cBGsA+eAB/UP+SQAFgIX+Ac84B/wkPyDi2AdOAc8qH/IJwGwELjAP+AB/4CH5B9cBOvAOeBB/UM+CYCFwAX+AQ/4Bzwk/+AiWAfOAQ/qH/JJACwELvAPeMA/4CH5BxfBOnAOeFD/kE8CYCFwgX/AA/4BD8k/uAjWgXPAg/qHfBIAC4EL/AMe8A94SP7BRbAOnAMe1D/kkwBYCFzgH/CAf8BD8g8ugnXgHPCg/iGfBMBC4AL/gAf8Ax6Sf3ARrAPngAf1D/kkABYCF/gHPOAf8JD8g4tgHTgHPKh/yCcBsBC4wD/gAf+Ah+QfXATrwDngQf1DPgmAhcAF/gEP+Ac8JP/gIlgHzgEP6h/ySQAsBC7wD3jAP+Ah+QcXwTpwDnhQ/5BPAmAhcIF/wAP+AQ/JP7gI1oFzwIP6h3wSAAuBC/wDHvAPeEj+wUWwDpwDHtQ/5JMAWAhc4B/wgH/AQ/IPLoJ14BzwoP4hnwTAQuAC/4AH/AMekn9wEawD54AH9Q/5JAAWAhf4BzzgH/CQ/IOLYB04Bzyof8gnAbAQuMA/4AH/gIfkH1wE68A54EH9Qz4JgIXABf4BD/gHPCT/4CJYB84BD+of8kkALAQu8A94wD/gIfkHF8E6cA54UP+QTwJgIXCBf8AD/gEPyT+4CNaBc8CD+od8Es4hd1/90qeeeyu/KAwLdwMLXS7wD3jAP5eXX9+6+siXbv06v+rY5AE58Q8/1erqq3/35nPy31xnJck/uOiycOD15+9uXRWHF2e+9Xw1fHhL3Tt9CoS/+uanHvnmm/W4nHX11t1UKM3adrqLFsK54abk2SmtBeKj9Pxf5VfnBr2LshQ8/7+097UFGfx01+5FIwx+uG5t0If6h3wSziGOpXMIFrpc4B/wgH8uLxILTiPpXYwhdWpUvReSf3DRZeHA609N7WKyoflkTCb1upIlzh6ElCvmTGnUW2kqZ0ShHXkcuosWNJ80j4zUeS6Wn1PSTZ2YfaV/Ac0np0vZSVD/kE/C8VM+zsnrlyxk8eVzb8W9+UvybjqOT6l8ePPcN/MpugyVs2Ql6rdzLHShwT/gAf9A+TolzmwOwsJEpznNobMxRnglfjAvleiZagBxSwisxWPfvJVPCe3ny9VzqwmXX2gk/+CiC8qprz9vPiceu/vqN6PPNZ8UT5p8xuSELaEDcpVi1OxwS7ijvg/dRQu/vvW8nPvW8/UhSrmQ9irSDZGlf7JysT68pW/S4FX59rVtYdFyvJ1b/eMZB6e7hCmMQxF78qZOXxiBVBKr6nJR+iPDW2uaDocpMEO6uG5s83lTuRTaan9367nUZr66D/UP+SQcO+ZTmfAoxgdYl874EJoHsqyn5gFO58pTFw/iU7ptPYULBP4BD/gH4qzVGZeYTA7yPMq7KbxTD8TwPRlDpt7G0+ZEIYeG0SqpWvRPDPukMMV/6p/47tg/uOhCcubrTzg35yqx5cbMA0InQ/vV//GKXc4jN3KrlJfCHTGDUHoyGKJKHIQ6XPHe9aAbosWtDVquj2c7qulcMyP13Dw1cq34VmiqXr0tKaMtV8k30lwlNRjejZeTknprZtJTZ6QRaXZwF3tF/UM+CceOeRgK+fm064IpNI9iObc+ru1xBgtdYPAPeMA/UEPq9jhTwruhB2phwnomkM+VKDA3a+qXawXP5CDVxKCV5B9cdCE58/WnNXxMV1J+mDzfEq7YOVbTodhDTZ9sYd+fTYS7y6MRepJPHAxRxTxZ5V6kvna+PLy1n4ZBy4NHe3CJ0XOqJToFpaT0YYj2oXbG9NleN75rO5MvtHF89oD6h3wSzgHyqMQlLD+funTqgT02D2d+kJo168TrKZx38A94wD+Xm2G8WF0hSjNuPaBvicyMN2ZQt5jo05iqXCt4xrZWO5NI/sFFF5WzXX/U8B3Sqy5LCRfKlxbH5t4ayim2D83DtRUdiiQ9sR+iinmyyr3IsJhGUn6Y3sr1DH3LZnjLmMslTGt6j11ntCd6+7lE+qNtZto24zjn2QyYRUP7XN7VqwTqOM/HZw+of8gn4RxRHg9dOvXAHi/X02b9sscZLHQ5wD/gAf9cUmysmY/DLOvU64yPPNAjdYwBck0TBRpTlesOPGNJ/sFFF52zWX+KCYNF2xMXJpfLaQo0yl5MU/pWkxRtoXt27O1nlndn28/HZVga7DM+orQc7lovmo/t7SjLQi3RTpaS4Uj2k1gPtL7tcziO79rrLkdjMPt+1D/kk3DsmGcmPAzxST7xeqoPW1ry+icKC11g8A94wD8gc1pnPPpBS2IAl2e8+iFYJUd1ccaLSQJSxxggu8VEgcZU6j31T+pAiRczyT+46EJy5uuPdkDOLS1n2ydPDlD/d8bOl9aOxeeo78+MtgOBfJXBEFW6xzNey/RERia+axqpDFqWDuc7knN1VHPHpEvpFH23XE6HItRJVy8lXX+e/6uuwXoVHbT4rpRUJ6TGzYCXCw3uYq+of8gn4fiJT1TzcVcqMb/TLKDHo/VUG/nSrVeXn9BgoQsN/gEP+AdinBcn/Vb+F2IxTpWSq7feVBsUY4RD8UOpYKdbyk1JdouJAo2pTCCol9OSSvIPLrqgnPH6Y0yYEpjcmdLyELlc21tRKRHKA9UUKvaiBXkEukJpRG52fIlIfLLK7zut74ZRyqcsnzXLomUZ3vLrc8s4B/R2zLDUZzaeq894aDNNgZaY/uQ29brPvaUTmuqE9rXEXLd03rRZL7RhfAJarVl85CrlXiaDk1H/kE/CJUOeyfLAFLAQ7Ar+AQ/4B/ZN8g8ugu2cl/Wn/8Mhq7H51T4IA2jSyItB/vMha1H/kE/CZaB+UDT84QosBBvBP+AB/8ABSf7BRTDh/K0/zgzHQD65lfxHPlej/iGfBMBC4AL/gAf8Ax6Sf3ARrAPngAf1D/kkABYCF/gHPOAf8JD8g4tgHTgHPKh/yCcBsBC4wD/gAf+Ah+QfXATrwDngQf1DPgmAhcAF/gEP+Ac8JP/gIlgHzgEP6h/ySQAsBC7wD3jAP+Ah+QcXwTpwDnhQ/5BPAmAhcIF/wAP+AQ/JP7gI1oFzwIP6h3wSAAuBC/wDHvAPeEj+wUWwDpwDHtQ/5JMAWAhc4B/wgH/AQ/IPLoJ14BzwoP4hnwTAQuAC/4AH/AMekn9wEawD54AH9c+WfBIhhBBCCB2tCNgQQmcrvp8EwELgAv+AB/wDHvAPeMA/4EH9w/eTCCGEEEIIIYTWiO8nAbAQuMA/4AH/gIfkH1wE68A54EH9Qz4JgIXABf4BD/gHPCT/4CJYB84BD+of8kkALAQu8A94wD/gIfkHF8E6cA54UP+QTwJgIXCBf8AD/gEPyT+4CNaBc8CD+od8EgALgQv8Ax7wD3hI/sFFsA6cAx7UP+STAFgIXOAf8IB/wEPyDy6CdeAc8KD+IZ8EwELgAv+AB/wDHpJ/cBGsA+eAB/UP+SQAFgIX+Ac84B/wkPyDi2AdOAc8qH/IJwGwELjAP+AB/4CH5B9cBOvAOeBB/UM+CYCFwAX+AQ/4Bzwk/+AiWAfOAQ/qH/JJACwELvAPeMA/4CH5BxfBOnAOeFD/kE8CYCFwgX/AA/4BD8k/uAjWgXPAg/qHfBIAC4EL/AMe8A94SP7BRbAOnAMe1D/kkwBYCFzgH/CAf8BD8g8ugnXgHPCg/iGfBMBC4AL/gAf8Ax6Sf3ARrAPngAf1D/kkABYCF/gHPOAf8JD8g4tgHTgHPKh/yCcBsBC4wD/gAf+Ah+QfXATrwDngQf1DPgmAhcAF/gEP+Ac8JP/gIlgHzgEP6h/ySQAsBC7wD3jAP+Ah+QcXwTpwDnhQ/5BPAmAhcIF/wAP+AQ/JP7gI1oFzwIP6h3wSAAuBC/wDHvAPeEj+wUWwDpwDHtQ/5JMAWAhc4B/wsNk/d28+cc9jN+/mVyNev7Glwv64c/2+e66/kV8opgPjCiv4zc1H771x58N3X3nsvmuvx0vIS0EG5N77op545TexKGLKc83IG9dyYdexWi7tT5i0Kb1K5Y/efDeXnR2hG/rfSp4U6WrspB6cATKMefBl2DcM+CHY6sm9mfZU2L4gnJDeOQAnQf1DPgmAhcAF/gEPm/2zPXw8pnxyT4TkJ+WKfT4ZE7yS2pkk0x6bEZPspSRRNqEy5ZK4NnlpZdymtHOG2dGS5J/eRXlS9K7t7Z82MnrnJ2G7bLB/gQf1D/kkABYCF/gHPIz8o9+ePXHtusknJcPJ34zlVKeW2Mwq15mkOjEjKnVMivXEKzcXrQUk48qF15b5ZNsBTThTCiEv47uhJzEVjC9rC6YnNiMNbeY6UkHuIvShyY4S5d2+PN5LSBGlb+ZGwst0laa8O1eZtNnmn8fw1VYYPf1vpdxs6GE/RPG731d0OszI63zV8YmV78iIxXJ7s1rYOq1rpM67XKjJwOtbdTrmPhyxi810jsLBozdvlierdqOt8EYYqFhBZllbLk5Y9D+N3nKUpCSdO7sFaarWLyXjxh+7+UrqyfU3tDze+83SW+tVmetUeO1mY9choVo+Ajg56h/ySQAsBC7wD3hY+EfCShP6l4hfolUNDWMwmsLQkjnkY41f5dxlKBljzRy/puA71YkN5nZMndiBHOOmcLmcWzEd0NA8tpxPTMemwXTFJmHTE1O5ifVj5XDW8ro1/m4C8a5lRQPxhvEoBXZps6tzNiT/9C4qI5YH0PY/zmkZbbmFVG7Hpx6nyktjTJw2bEQOzOXSiElhacEcS4XB5SbEE22DS5tVa8Xk0PSzXH1YIR6XEas328y4NGJHqV46nJvqj63Yluvxpsa1ES1P95vrSw9Nz+0AlvIZvXMAToL6h3wSAAuBC/wDHnr/2EjdhpUtGgSbdE7CR41HA3JuqjOjht3jWLa7er2opXagVmhONMF97aQ5KxI6oD3ZEgEnzCX6U0I3FkF8c4MRKQmDPwr3A5vbTJH6aDROneSfbauQJi3ddEymTGkrF3POnLYcZKG8G9AKXU3tXlM+7pKhqTC0mblBPRBM5XGF5jFUM0y6t7i0WsXcu6FpXNml8Vre3Hs9V7sakQuZlyO2OQdgE+of8kkALAQu8A946PzThomLvEuCy5jJaDJTK0hMmd9SLWPZiITOuc6mQLmJsFP5MDguPdT6zV1InzV6zoG+VNBO2p40lafE0zVQbmPo2I02S4wjs2EoBm9tbVNobvOMCEOn/51jkpw2PzG3r/4xN95NRz5XaxqFRtqWFWMbOVFstqhZhrdUiGwd3qZC09V95JP10mqGSfea26mXDph7r0zua5fGa3nbiB3Y5XzlV0PC3OUjgJOj/iGfBMBC4AL/gIfOP32sqXGthIYSuHdRcpdPajw6Q04M7dQ2NwXKTYSdyhfB8fp8UitYQmvb8kk5t4mSuxs3uZMg7w66reQrxmpJ0rHNbRbKAOZRFW0J3/dOuKj+d47pf5tjdFOcasYbibPQzJ2e2w1OoW1ZMbYpJy5qhm5c5HxSKhSHmH8D2bJL47W8bcQO7HK+0kHtQH43EkryEcDJUf+QTwJgIXCBf8BD7582oWrCRxMI1ti3Br6TnKdBI+NIDVXHsWwbs7YBt2Iib63QnNjEuCXabm+z0gXEC+QSfYXuxs09xjC6G5PupiY9mbTZVa4DeGYk/2xbhczttH0ez2mTn5gbzLc/c1rjIsVYVyt0NbXBpryfqQXbbWZusLlTc1/jCsbVsVep8qR7zSjVSwfMvRvGltul8Vre3Hs9V7sakQuZlyPYv8CD+od8EgALgQv8Ax4W/ulC//xdog0f5Vi/Z7CBbxM+DoN+G7PKcak/iWVtuTRuAm7FdEAj8ibYHQf6ctCE77lOGxC3xBtfBuL29L7z29KeWZ1Zm3ZU21s4I5J/tq1CptttfjKeMr335MB8j6YRqTBw2rARKcwt1JGXQju8+dhOTdvaiKbC2GaTdNEMwrhC6Hy9dOhVqmxnXLqa6zRDWi8dMPduMSNZr7tL4/WW28Gp4yat5fLYoDl3yDbnAGxC/UM+CYCFwAX+AQ8j/8RoUhT/rkMTHUalH5kzIbhGjbE8V9OAtUGi/FQhnCLnxmo1Hg00oWrKKILSHy0YBMe1AxqRL1oYBPrmNoOGFTps/Sy9R3PjuSk7FN1b9aZmoxRZthkx3RiMxmkTuqH/nSOjmu+0zU9MEmUMphViZfmjNYv7tcNrx1AazOW2kfAyjOHCZrmmDu+iQk2ZBjQVJjbTGzR32gzCuMI4n9R7iX3WOqa1zsDSQzNoBuOi5hY2N15vuR0cO251HuPfC7HWHRCq5SOAk6P+IZ8EwELgAv+AB/zT04TysIXkn0O5qE1m4Jwh00c+CQdE/XPs+eRvb1196Fs/zS8m9P3MW5H5NE6wH7xt+jzyYDQfWQ0pn2M1n8/BKXAKFmo/Styd/LHo2tPhNNjsn+Yz70D8BLrxT6i/YctfGVubD79Pvp70fd4b2c+RsiRuvv1LQO8fEG+Qw+xK8s+hXEQ+ec5oAshdVvLeOX38owcJeRlOyZp/9Vo3nbjljU4xm9R8j5NbyNXsNmG60fShtrnYZFO5mjlvRgRXTsKopoOjziclmQz488k+gIuGO0i0tAHpz+aojnzyrDhiC7HknQO2+Ce/LMjLJx41JVsmtzt9F8Ipi+3cuPesiE8N+eSCM99qjxEx7aV2xe4k/xzKRTIRZ51PxgVtoJMujJcEO1w7RCmhWj5K5B1H4x8TCDXHAXm5nIWUAeoGFDa40e4Tzy3dm+W9Ul7atxulqT/rngmkrYfrdkNwtR/UP8eaT959LaaSL7zwrdX5pBgumql7ACLNEhlt3T17cTOTf7iSyq3b5K1cPzcbStI/LCktiEFznXSVegnr+1zHPi1yenjrrJfvS0aYhXyUOJmFzLJll7zWFU35xFqyRMbCR2/eLG3mJU+6NFpt4RgIU5aPEp1/qlWEWGifceMu2eqyB/KeV0tybL1YWwRpU/6dTCpsDJmRdnQT3W5XsaIuZddvLpavQF3B4qVrZ4Ykbz96/Ua38ObxMU/BJSSMTD4CODnJP7gI1tE7p9u/7A7V7mXCsiScfv2G3WVKOy11S9pAt5eVcKi7aOlw12bcvGQX0+0sUvYdgqs9of453nzytTfl/z9dkU8Gq2UPjZzXE6OibCZzLGdpuXi6BFLW3+U4VtZIq4ZogepvNXE+1vrV66/fiIXh3a2PGewTn4WsJdoAfeiKibWkQlkKU/Ad2yxmyN6AY2SLf5pnP8y4TGiY4jKhoSRWk7VCbSbG0GVB15PJ2pIMUxYNUz5iJ7vqohRtWeqbHkqF3BO5O5vcDrlzU69Sa9bnKz8Ol5TePwAnIfkHF8E6dtm/zG6l0cuQtMHZXSac/sSj5cNHPVe3mBOg20e3x5XyZn8M5Gq2/0K5dCiPjRBc+VD/HPu/n1yTT3Zsjq4mvqwHkSa6sn5NNJXDg1RPDIRzo1nF0zUsaxrpT4FTxmWhZunsAvQ6rbNys7TVRmId8xKOm61Lpcx+2jvDzCYb6CIgcz1wV91u63IxW1tM5dkaVdnJrtpg25qe2/ZEHpCmY1Paq0DiGLZaOL8k/+AiWMc257T5WAxOwilR/WIe9otY0+4yclxOl6bSzpI2L9lo2jxzA3Wbm4TQdZ9N5L21Da7sdgz7QP1z2fPJNloKlDhpEl1VQ1ts5eZhy4rPUvW0XLSv0z+WcJqEKchHQzZaqF06jaNaC83Ki6OK8TJNm3DkbPFPoOx/wQZlZw1TLKYSY/RbYFkWUrnundO1pVmXqtPG7GRXbbBtrZwrlc0T0Z67id1rXibCPOYjgJOT/IOLYB3bnNPmk4rERXEb0g0iLO/5eB7AlC1Atphap+aZM2L9sunonpgJl5M2R5tpOIV88rCofy5BPrkxglnEXtmX3VkaXdm4rWIrTy/X5pPNReGM8VhoxwB9Vl4cVYyXmS/HcHzssFSGCU0bWzP1YYrDf/NWLcaoW2xdapp8cuzDZl2Sbd4kez072VUbbBercq5UJp/cG8ew1cL5JfkHF8E6tjlnkk9mdEOxu9uGACa8JdXqxpfI25acGPojqvtO3I/sjtPtcWVb6UPrXK3vf7Ndghv1zyXIJ8cPQ7H7xJdd3DOJrgpN5dmDJN3I5VsCPjhtXBZqZ3wWoG8L3I09AlJn6CI4RnZZKsNEd39aOlgi/uKlbAZxiNnk6p4Xlou85szWlm6DHFWrrtvJrpMVz3q+Vo4Lmnm5gfYqkDiGrRbOL8k/uAjWsXv8024HifJuDFpCU1ZSPoix5WW3382jYmm/v2i3j+gW2Tail2j3xzbWAjdhotPBZcgnk/lsPiBRUTFoNGu2mjlu/WrsaKMx+yDVymLi6mmtb01sL7rhQYJTYn8WMuVLV4zKm8C92EAKlykBHCu7LJVhfh99bPnTOHWnrA7JZiim0s2yNYldi9r9Mi0pxj/pQrnCTnZtbFmu3l8xl8cGzbmbaK8CiV38AzAj+QcXwTq2OUdW+BL8xC2j32uW4WvdKdJxOb1vqtSxu1KD2WgazJZn25y0b/cd4u19o/65HPmkEB+DomK4RLRyeksNPYmuhBSc2fqLIEnqlzoa1TUxYtMfzH3GhFnIR5uYW6ha4sYdjf5bV9S4fG4ttY392gqOnzBl+WgD0SS6GkS6TbRZiEzqmIyX/TBcW5oFKlE92dQUdrCrNjjLJ21vu+9dN9FeBRJhDPMRwMlJ/sFFsI5tzrFJWsDsU0GjZK/dKQImdmr2qVl5od3FkpYb0KzNJkiLn7FGsQHtmTCq6eDY88ldOC/9hKPl+CwU1kRWvXPDZV+CZNfnQ7H1sIWBh+QfXATrwDngQf1DPglwDBZqPgJsvxSCY+fyLUHNx8+Db0fhJMz9I8uCjnP+CZdGN+6MPsIX5RmZfYo/KzdMPtE33Zh9iHCCrw5GN5XezZ+p6WIYbGa+8YBKGDH977442UOtP3eQf96h2c7gyNmvc+Cyof4hnwQ4DgvZuJBk8lxxGZegmmyUuHOW2PDV5TbCKOWjhpyVTZIoyc3akF3qd5VNVtCE+LPyimYIAZnrMonmePax16Rxe9x8HmGJ6WVqv88nYwleGpD8M3HRqUA+eZ45S+fA+Uf9Qz4JgIXABf4BD0v/5G/trt+Y5V2Ss/W5nATxTWWbEwZyrD8vN2le+/WUttzlCTnlC9Ssb9a4SUQDUr+2X5A6egul8VBYao7PuvQk/yxcFAfw9TAd8WOdxi0y0VIoHqtjG//dfv4Iwxogu1HU5PNSJ5Y/ev1Gm0/KW40V4YgJM5iPAE6O+od8EgALgQv8Ax6W/rl782b5jm4Ul3c5W2aRT7YpXPMl0rC80n+/VLKLrj99NWHSeE04E121gNS0rYXGY4XXb9RCqdOeBcU/CxelpDEPl8xgHn87iXUGY9JYbaD5ZCzPjdhj06A0ks8NExTPunO9cxQcL+xf4EH9Qz4JgIXABf4BD3P/jPNJjfVbJKzv88n+W6kY5c/KK31TkkjkfLKpGXoyyCdHjZcWCn1mGHOS5sQh4wG55CT/LFzUjpVN7EcTIeVm/IvHugHX/HPcOJxH2L/Ag/qHfBIAC4EL/AMe5v4Zpk+znOoc55OSvTTp5QzNZ6CS/LNwUTdZ4aXMaRzqTvN8cpEo5hnvy5cWgnND8EA+Ajg56h/ySQAsBC7wD3iY+yfnAA0hYRunXqN80tbUHGBWXunTtpxd9P0ZZXeTxrt0pakmx7tmIzmfAUPyz8JF83zSJvYF8slLC/sXeFD/kE8CYCFwgX/Aw9w/g3xylg8M8sku6A9pW0oYZuWG9iracpdAjrKIWeM2gaxfeKb6u6eIowz20pP8s3BRa54yL31iXxjnk70DdfzHjcN5hP0LPKh/yCcBsBC4wD/gYe6fZT65IaHSrK9i0sLmxFl5xWYINhU0x7PMZNK4Pdb7ksJSeReWAwLZPwsXyVjpBJlJkXKdcZ3EST4Zy+2MD2Y/TiL55LmF/Qs8qH/IJwGwELjAP+Bh7p9l+rQhoZKwfvFWivWjmrRtWN42LqljqtOkCjGpSOXt9401G5ldNGY4UTmfiV9O5ppWzVkGqV8vCokwYvpfQ5zN62USTa7YDHspb2fQ5p/jGQ9InVh+7SbfT55jwgzmI4CTo/4hnwTAQuAC/4AH/LMjIbEZfJV66Un+Wbhow0cPABXWH/Cg/iGfBMBC4AL/gAf8sxshQeLLyQHJPwsXkU/CTrD+gAf1D/kkABYCF/gHPOCfXbhznexoTPLPwkXkk7ATrD/gQf1DPgmAhcAF/gEP+Ac8JP/gIlgHzgEP6h/ySQAsBC7wD3jAP+Ah+QcXwTpwDnhQ/5BPAmAhcIF/wAP+AQ/JP7gI1oFzwIP6h3wSAAuBC/wDHvAPeEj+wUWwDpwDHtQ/5JMAWAhc4B/wgH/AQ/IPLoJ14BzwoP4hnwTAQuAC/4AH/AMekn9wEawD54AH9Q/5JAAWAhf4BzzgH/CQ/IOLYB04Bzyof8gnAbAQuMA/4AH/gIfkH1wE68A54EH9Qz4JgIXABf4BD/gHPCT/4CJYB84BD+of8kkALAQu8A94wD/gIfkHF8E6cA54UP+QTwJgIXCBf8AD/gEPyT+4CNaBc8CD+od8EgALgQv8Ax7wD3hI/sFFsA6cAx7UP+STAFgIXOAf8IB/wEPyDy6CdeAc8KD+IZ8EwELgAv+AB/wDHpJ/cBGsA+eAB/UP+SQAFgIX+Ac84B/wkPyDi2AdOAc8qH/IJwGwELjAP+AB/4CH5B9cBOvAOeBB/UM+CYCFwAX+AQ/4Bzwk/+AiWAfOAQ/qH/JJACwELvAPeMA/4CH5BxfBOnAOeFD/kE8CYCFwgX/AA/4BD8k/uAjWgXPAg/pnSz6JEEIIIYQQQggNdUG+n/zHf3wfodXCQsgj/IM8wj/Io+QfXITWCecgj9Q/5JMIsZ4il/AP8gj/II+Sf3ARWiecgzxS/5BPIsR6ilzCP8gj/IM8Sv7BRWidcA7ySP1DPokQ6ylyCf8gj/AP8ij5BxehdcI5yCP1D/kkQqynyCX8gzzCP8ij5B9chNYJ5yCP1D/kkwixniKX8A/yCP8gj5J/cBFaJ5yDPFL/kE8ixHqKXMI/yCP8gzxK/sFFaJ1wDvJI/UM+iRDrKXIJ/yCP8A/yKPkHF6F1wjnII/UP+SRCrKfIJfyDPMI/yKPkH1yE1gnnII/UP+STCLGeIpfwD/II/yCPkn9wEVonnIM8Uv+QTyLEeopcwj/II/yDPEr+wUVonXAO8kj9Qz6JEOspcgn/II/wD/Io+QcXoXXCOcgj9Q/5JEKsp8gl/IM8wj/Io+QfXITWCecgj9Q/5JMIsZ4il/AP8gj/II+Sf3ARWiecgzxS/5BPIsR6ilzCP8gj/IM8Sv7BRWidcA7ySP1DPokQ6ylyCf8gj/AP8ij5BxehdcI5yCP1D/kkQqynyCX8gzzCP8ij5B9chNYJ5yCP1D/kkwixniKX8A/yCP8gj5J/cBFaJ5yDPFL/kE8ixHqKXMI/yCP8gzxK/sFFaJ1wDvJI/UM+iRDrKXIJ/yCP8A/yKPkHF6F1wjnII/UP+SRCrKfIJfyDPMI/yKPkH1yE1gnnII/UP+STCLGeIpfwD/Jos3/eeenxex55+Z1FedWPnt1SYX+6/cx99zzzk67QdmBcYYV+8fLD9z57+x9/9eIj9z31o3gJeSlvyYDce1/U4y/+op5iynPNqJ88lQu7jtVyab+WN5q0Kb1K5Q+/9CutfFYK3dD/VuVJka7GTuqBqXNakmHMgy/DvmHA9yVzRdVeLn3g/ovPT9tXvXMQOonUP+STCLGeIpfwD/Jos38kMj4/+eSeFJKflCv2+WRM8EpqVwq7YzNiEv2X0NwmVKZcEtcmL60atyntnHJ2tFnJP72L8qToXdvbP22NsrvDanTFc5BPhufr9OeI/Qt5pP4hn0SI9RS5hH+QRyP/SNgayu+59/GnnjH5pGQ4+ZuxnOrUEptZ5TqTwDdmRKWOSbEef/GlRWtBknHlwqeW+WTbAU04U0AvL+O7oSdSkmrWFkxPbEYa2sx1pILcRehDkx3V0+M9duXxXkKKKH0zNxJepqs05d25qkmbbf65t+9jHQqjp/+tKjcbetgPUfzu90WdDjPyOl91fGLl2zJisdzerBa2TusaqfMuF2rysfpWnY65D0da2syWa7Wo5tJVjRnK/cqxjFjphjpBG1ncSB1GeSufOPfG4t7t5bbc9X4VrtiVILS71D/kkwixniKX8A/yaOEfiUdN6F8ifgl8NZOJMWuKVkvmkI81GG0zn6IYtpYwNwa1qU5sMLdj6sQO5Lg55Q/LENl0QPOrFC6nE3PoXBtMVzQZTpOYSblG6refiZXDWcvr1pheD5KallVt0F80HqWgXdrs6pyNkn96F5URywNo+x/ntIy23EIqt+NTj1PlpTEmThs2IgfmcmnEpLC0YI6lwuByE8UTm/uqjfcnziarKS8nNpeOV0k3qJUXZ+U+2/KhZ0SxweW9y1MwrH9Q9c5B6CRS/5BPIsR6ilzCP8ij3j82Um9C1UY1AavpnMSvNmKWczeG4yYTGMfH3dVN1mc0yyf1RJNv1E6as6JCB7QnWnmTzCX6U0ZxeXODWhIGfxLBb24z5hs1KztLJf9sW4VMbtNMx2TKVG3lYs6Z05aDbN8Nx1qhq6nda8rHXTLqKjT3Eie307JvQXrW8gnKGjwm436aO42SE+uzXDS796FvD64wLF0JQrtL/UM+iRDrKXIJ/yCPOv/0MXSXd0mEWuLjFLnWChKn5rdUNro1khg61+kCZZH2wYTapXzZ4E75pEbVOWSXCtpJ25NxCN4rnq55Tui8yXkGcXkcmQ1DMXhra5ui5jbPSGHo9L9z1aTFZEcic/vqH3Pj3XTkc7WmUWikbVllbCMnis0WNcvwlgp64sbhNS2Xl7F+Vx7VtNwoJ8kD78ng5BtMvdVGxv009VULM0/vvR6cpkInuxKEdpf6h3wSIdZT5BL+QR51/uljaM3WJAyVCDVFsRK5poi5zSfHEbNRDnlrm12gLGri4y5e78N0Rz6pFaw0uJ9Lzm0i8u7GTe5U3h10W5WvGKslScc2t1lUBjCPqqhJFU5B4aL637l2ySdrzXgjcRaaudNzu8Hp3u3LjW3KiYuaoRuxe03LU5MUmZbLy1i/K4/SluUgT1ZuPL9lz8oTmirU3jaNLPu5GMyk9orTe68H0mA5Ra9yIIVLdCUI7S71D/kkQqynyCX8gzzq/dMmVLMQuUauNZ2b5DyNQmhrYtlBoCxqLpobF43D5VX55DRvbCoPJJfoK3Q3bu5RWuvHpLupSU8mbXaVF7nB6Sv5Z9sqZG6n7fN4TtUP3Q3m2585rXGRylhXK3Q1tcGmvJ+phWb+NFdUjfuWFE98OfShVAiVzV3XQRj3X7uxtcNRXU/qYIZujEb1sGL/Qh6pf8gnEWI9RS7hH+TRwj9d6J+/JLGhqhyH8hQxm3QuhvsaBw+DfhvLyvHiB/lE5lqmXBof5R6mA01Ar72Su9AcTHoVG5SD2lpOVMJxuKIJ5VvFG1/mfvb0vvOjAN3e7KzOrE07qu0tnJGSf7atQqbbk3yymTK99+TAfI+mEakwcNqwESnMLdSRl0I7vPnYTk3b2kjxxFLf3Je5oqppuZd0VZ+FoN4hi8fETn2sMLLcrP/mfptj8kl07qT+IZ9EiPUUuYR/kEcj/6QQVr6Ik7/rkEPSGMKm8md+YsJQG+/mCDtpHJvm0DmdouGvHIzj+JRRBD3y8ovz77JSB06ST+qJScMKnWz9rCZ2z4U2Uq817Vv1pmajFLVsM8p0YzAap63QDf3vXDXls3lXkE5ZYzCtECvLH61Z3K8dXjuG0mAut42El2EMFzbLNXV4FxVG+ZgqVnj2qdLt5sR+apqWF4pzaq+19TGpFop/T2X5vATNOz+6d/JJdP6k/iGfRIj1FLmEf5BH+KeXjc7RNiX/HMpFbfJ5bNqacKKtYv1BHql/jjef/Om3Hiq88NNcNqZ/GPJWZD6NE9kP3s7gE6CNn7lmlU/UNn+KhvavU7DQ2m0vmEH2cnbNY9Zm/5iP/6Pip9eNf0L95tuPVitj6/hxe9FJ15O+z3tT9nM8Lkvi5tu/BOr9g8Qbx5vDHJuSfw7lIvLJi67eOX38owepgrwMp2SNt4k2iLVf2DanmE1qPonm6267TZhuNH2obS422VSuZs6bERZyKoxqOjjSfFKSyS+/9tt4/NtbV/V4iN5MVv8wLAO4aLiDREsbJP0hnzxOHbGFWPLOgbb4J7+07z7+sCnZMrnd6bsonLLYzo17z0rxqSGfXKj3DwoS015qV+yu5J9DuUgm4qzzybigDfTIy2+yM7oVRrIpyTuOxj8mEGqO88vl+KcMUDegsMGNdp94bgmiZp9gSnlp326Upv6seyaQth6u2w3B1X6k/jnOfPKnLzz00Atv5hfx5dXX7uYXSyYPgxgumql7AKKaJTLaOi1Paui4mck/XCnLVnWbvJXr52ZDSfqHJaUFMWiuk65SL2F9n+vYp0VOD2+d9fJ9yRRmoSk5mYXMsmWXvNYVTfnEWrJExsKHX3q5tJmXPOnSaLVFx6AwZU1J559qFVEstM+4cZdsddkDec+rJTm2Xqwtpc2X0roUChtDZkk7uolut6tYUZey+GsP00XNU1BXsHjp2pmhkrcffubZbuHN42OegkuoMDJdCUK7K/kHF6F16p3T7V92h2r3snFJOP2ZZ+0uU9ppVbekDer2shIOdRctHe7ajJuX7GK6nUWVfYfgak9S/5yHfz9597WrJ8ong9Wyh0bO6xWjomwmcyxnabl4ugRS1t/lOFbWSKuGaEHV32rifKz1q9d/9GwsDO9ufczQPuWzkLVEG6APXTGxllQoS2EKvmObxQzZG/IuOjZt8U/z7IcZlwkNU1wmNJTEarJWqM3EGLos6HoyWVuSYcqiYcpH2smuuihFW5b6podSIfdE7s4mt0PdfkmvUmvW5ys/DpdUvX8QOomSf3ARWqdd9i+zW2n0MlTa4OwuE05//OHy4aOeq1vMCaTbR7fHlfJmfwzK1Wz/ReXSoTw2QnDlk/rnHOST8rOv39r0Lyj7h6HT5uhq4st6EMub6Mr6NampHB6kemJQODeaVTxdw7Kmkf4UdMpyWahZOrsAvU7rrNwsbbWRWMe8RMetLf5Js5/2zjCzyQa6CMhcD9xVt9u6XMzWFlN5tkZV7WRXbbBtTc9teyIPSNOxqdqroKSt/kFog5J/cBFap23OafOxGJyEU6L6xTzsF7Gm3WXkuJwuTaWdJW1estG0eeYG1W1uEkLXfTYp761tcGW3Y7QPqX+OPZ+Mv5XnhL+Pp9PGZKCNloJKnDSJrqqhrWzl5mHLis9S9bRctK/TP5boNBWmoCtptNFC7dJpHNVaaFZeHFWMFwu7NtGRa4t/gsr+F2xQdtYwxWIqMUa/BZZlIZXr3jldW5p1qTptrJ3sqg22rZVzpbJ5ItpzN2n3mpdJYR67EoR2V/IPLkLrtM05bT6pkrgobkO6QYTlPR/PA5iyBcgWU+vUPHOmWL9sOronZoXLSZujzTScQj55WKl/jjqf3CWZDOjNjLUxglnEXtmX3VkaXdm4rcpWnl6uzSebi6IzlsdCOwbos/LiqGK8WLhpOUbHpy3+EYUJTRtbM/VhisN/81YtxqhbbF1qmnxy7MNmXZJt3iR7vXayqzbYLlblXKlMPrk37eAfhKZK/sFFaJ22OWeST2bphmJ3tw0BTHhLqtWNLylvW3Ji6I+o7jtxP7I7TrfHlW2lD61ztb7/zXaJ3FL/HG0++dvXvlx/xetmVj0Mxe4TX3ZxzyS6Kmoqzx4k6UYu3xLwodOWy0LtjM8C9G2Bu7FHrjN0ETpGbfOPKEx0/L019cEPloi/eCmbQRxiNrm654XlIq85s7Wl2yBH1arrdrLrZMWznq+V44JmXm5QexWUtIt/EJop+QcXoXXaPf5pt4P23Ri0hKaspHwQY8vLbr+bR8XSfn/Rbh/RLbJtRC/R7o9trIXcChOdDo40n7R/L2QrejNTRaObfECiomLQaNZsNXPc+tXY0UZj9kGqlcXE1dNa35rYXnTDg4ROSfuzkClfumJU3gTuxQZSuEwJ0LFqu3/i/D78yPKncepOWR2SzVBMpZtlaxK7FrX7ZVpSjH/ShXKFneza2LJcvb9iLo8NmnM3qb0KStrFPwjNlPyDi9A6bXOOrPAl+IlbRr/XLMPXulOk43J631SpY3elRmajWZSbHW1L+3bfId7et9Q/R5lPyi907TF/PqRnt2U0PgZFxXBJ0crpLTX0JLoqb7X1F0GS1C91NKprYsSmP5j7jBVmoSsZaW6haolnb2v037qixuVza6lt7NdW6PgVpqwrGSiaRFeDqG4TbRYikzom42U/DNeWZoFKqp5sarZvTe2qDc7ySdvb7nvXTWqvgpLCGHYlCO2u5B9chNZpm3NskpZfhlOyRsleu1Pkl7l+s0/NyovaXSxpuQHN2myCtPgZaxQb0J4VRjUdHPvv49kFvRmE1un4LBTWRFa9c6PLvgTJrs+HYuvFFoY8Sv7BRWidcA7ySP1DPonQMaynzUeA7ZdC6Nh1+Zag5uPnwbej6CSa+0eWBR3n/BMujZ69PfoIX5RnZPYp/qzcaPKJvunG7EOEE3x1MLqp9G7+TE0Xw2Az840Hqgojpv91q7HcDuqnaVEBHbv25Bx0SaX+IZ9E6DjWUxsXsjGfK13GJagmGyVnmCU2fHW5TWGUupKonJVNgnvJzZof6BplAibVl3e1/qy8SmazpJEy12USzfEshZg0bo+bzyOsYnqZ2l8mKqEELw2U/DNx0Uk1cNFGkU+ee+3JOeiSSv1DPokQ6ylyCf8gj5b+iWlVyMqeneVdkrP14fsiE7A5YVBIBdMps3KT5pmcMEhbtjlhUM4lwnFNJ2aN26Q01a/tF0kdvYXSeCgsNcdnXXol/7QuamaqTfZKWt58AJSmTM5KJTbzz3XMLMR/4S+FT/1oME3ofCnMY1eC0O5S/5BPIsR6ilzCP8ijpX/eeenl8h1dmyImdTlb1iKfbFO4etasXEv6vFHTy64/fTXRpPE2pVlUC4rpjWktNB4r/OjZWih12rNQ8U/nIpN7pyyxjFtK/OJol6mMFfLsyLFJ6Zs6aSKk5WqY0TShcyX2L+SR+od8EiHWU+QS/kEezf0zzifbLw9VNhOICpmDTeGktZJPDstrSd9USU76mqEng3xy1LhJb6L6zFCu2J441HhALrmSf3oX1REOg/bsU+Vfn4YpWw6gyfbr1M+mzFRGF0HsX8gj9Q/5JEKsp8gl/IM8mvtnmD7NcqpznE9KhtyklzNJx/gerFPyz8JFZrrj3x+K4xYK7TiHl+XHWRf5ZJyUTuSTF1BhZrsShHaX+od8EiHWU+QS/kEezf0j4X6fOob0YJx6jfJJW1NSuJJgDMu1ZJG2SWqR80l7iVF2N2m8T0JsNTnuOjDVIIO99Er+WboojVXOJMNEhPEP/81Zfc4k02Ca2WnzSfsRQBH55AUT+xfySP1DPokQ6ylyCf8gj+b+GeSTsyh/kE92iWJI21IaMCs3aq+iLXcJZOjeIg+cNW4TyPqFZ6q/e4o4ymAvvZJ/Bi4KY/7Myy8+kqYjTNazL770eHZIO+nDfHKWN5JPXjCxfyGP1D/kkwixniKX8A/yaO6fZT65IaGqmYDKpIXNibPyKpsW2lTQHM/yiknj9ljvSwpN4rpVgwQbJf8MXBRz9TJfcahH8xiPp7+PR72h000+ecHE/oU8Uv+QTyLEeopcwj/Io7l/lunThoTKZgJNYWhf1KRtw/K28ZRmiJovISWdyOUlIelzjNlFpf1UnrOUnPAsNMswpX69KEoKI6b/bRUnogxmlwdK2p9GOxTKXOdZzvObzrITVM4ln7xgCpPblSC0u9Q/5JMIsZ4il/AP8gj/7KiQyQy+Sr30Sv7BRWidcA7ySP1DPokQ6ylyCf8gj/DPbvpJ+7tJUVbyDy5C64RzkEfqH/JJhFhPkUv4B3mEf3bR7dEfTkRByT+4CK0TzkEeqX/IJxFiPUUu4R/kEf5BHiX/4CK0TjgHeaT+IZ9EiPUUuYR/kEf4B3mU/IOL0DrhHOSR+od8EiHWU+QS/kEe4R/kUfIPLkLrhHOQR+of8kmEWE+RS/gHeYR/kEfJP7gIrRPOQR6pf8gnEWI9RS7hH+QR/kEeJf/gIrROOAd5pP4hn0SI9RS5hH+QR/gHeZT8g4vQOuEc5JH6h3wSIdZT5BL+QR7hH+RR8g8uQuuEc5BH6h/ySYRYT5FL+Ad5hH+QR8k/uAitE85BHql/yCcRYj1FLuEf5BH+QR4l/+AitE44B3mk/iGfRIj1FLmEf5BH+Ad5lPyDi9A64RzkkfqHfBIh1lPkEv5BHuEf5FHyDy5C64RzkEfqH/JJhFhPkUv4B3mEf5BHyT+4CK0TzkEeqX/IJxFiPUUu4R/kEf5BHiX/4CK0TjgHeaT+IZ9EiPUUuYR/kEf4B3mU/IOL0DrhHOSR+od8EiHWU+QS/kEe4R/kUfIPLkLrhHOQR+of8kmEWE+RS/gHeYR/kEfJP7gIrRPOQR6pf8gnEWI9RS7hH+QR/kEeJf/gIrROOAd5pP4hn0SI9RS5hH+QR/gHeZT8g4vQOuEc5JH6h3wSIdZT5BL+QR7hH+RR8g8uQuuEc5BH6p8t+SRCCCGEEEIIITTUBfl+Mh8BrAILgQf8Ax7wD3hI/sFFsA6cAx7UP+STAFgIXOAf8IB/wEPyDy6CdeAc8KD+IZ8EwELgAv+AB/wDHpJ/cBGsA+eAB/UP+SQAFgIX+Ac84B/wkPyDi2AdOAc8qH/IJwGwELjAP+AB/4CH5B9cBOvAOeBB/UM+CYCFwAX+AQ/4Bzwk/+AiWAfOAQ/qH/JJACwELvAPeMA/4CH5BxfBOnAOeFD/kE8CYCFwgX/AA/4BD8k/uAjWgXPAg/qHfBIAC4EL/AMe8A94SP7BRbAOnAMe1D/kkwBYCFzgH/CAf8BD8g8ugnXgHPCg/iGfBMBC4AL/gAf8Ax6Sf3ARrAPngAf1D/kkABYCF/gHPOAf8JD8g4tgHTgHPKh/yCcBsBC4wD/gAf+Ah+QfXATrwDngQf1DPgmAhcAF/gEP+Ac8JP/gIlgHzgEP6h/ySQAsBC7wD3jAP+Ah+QcXwTpwDnhQ/5BPAmAhcIF/wAP+AQ/JP7gI1oFzwIP6h3wSAAuBC/wDHvAPeEj+wUWwDpwDHtQ/5JMAWAhc4B/wgH/AQ/IPLoJ14BzwoP4hnwTAQuAC/4AH/AMekn9wEawD54AH9Q/5JAAWAhf4BzzgH/CQ/IOLYB04Bzyof8gnAbAQuMA/4AH/gIfkH1wE68A54EH9Qz4JgIXABf4BD5v9c/fmE/c8dvNufjXi9RtbKuyPO9fvu+f6G/mFYjowrrCC39x89N4bdz5895XH7rv2eryEvBRkQO69L+qJV34TiyKmPNeMvHEtF3Ydq+XS/oRJm9KrVP7ozXdz2dkRuqH/reRJka7GTurBGSDDmAdfhn3DgJ8Sp/jITBGHJwPrmBS3ny69cwBOgvqHfBIAC4EL/AMeNvvnfOWTeyIE1inULhF2ySdjgldSu1LYHZsRk0i9JFE2oTLlNaxfMG5T2jmq7Cj5p3dRnhS9a3v7p43JJ4+DPDhnysB4xe2nC/sXeFD/kE8CYCFwgX/Aw8g/kqiE8nvufeLadZNPSoaTvxnLqU4tsZlVrjOJTWNGVOqYFOuJV24uWgtI4JsLry3zybYDmnCmFEJexndDT2IqGF/WFkxPbHwf2sx1SoQd+tBkRwmNv7vyeC8hUpe+mRsJL9NVmvLuXGXSZpsG7O37WAdh9PS/lXKzoYf9EMkt3HhFp8OMvM5XHZ9Y+Y6MWCy3N6uFrdO6Ruq8y4WaDLy+Vadj7sMlzTz2LeebNZ3MlWtJPtd0o5nZazeT87usT9B7fPTmG8WEsVDHx/pEjnP92lqtkHouE1TafLdpamrR/RCumI8ATo76h3wSAAuBC/wDHhb+kfjShP4l4pc4WENbqZMjzlCuKYGNsG1EW4lhawlVYyRdg9rSjqkTO5DD9BSI1zC3YDqgcXCK0dOJOV6vDaYrNlGyCaClXBODO9dj5XDW8ro1hdCDxDj+lm7oQCnjUQrs0mZX52xI/uldVEYsD6Dtf5zTMtpyC6ncjk89TpWXxpg4bdiIHJjLpRGTwiajS8dSYXC5MaFymbtozjJB4cRYLoU6ubFl7fyik4K5qZgxlhtssT2P1fIdNUmgjkkcwGKSeEfpcnXQdEzk3VyzH95xT/ZC7xyAk6D+IZ8EwELgAv+Ah94/NpTs4l1DDV5rcGzi0YicuykcHwa1gl60u3oTMSsmOtcKzYn1KoHSSXNWRHMDkyRsxFyiPyV0Y4fcT0rC4C9qJja3GRODmpWdJck/21Yh6XDufzMdkylT2srFnDOnLQdZKO8GtEJXU7vXlI+7ZNBJCTUfvX4jfokd+zw6S+/UeG86y7VyjxnJgIxP7nBzSjduhXpHtYLesh3VOg5m9A7CNucAbEL9Qz4JgIXABf4BD51/+hi6y7ti/BpOEQ2C4/KWahKJSuyb63RBraB96KLqcWhreqj1m7uQPmuGnINmqaCdtD1pKk+Jp2u8Ps0KCnFkNgzF4K2tbQrNbZ4RYej0v3NMFtSmOub21T/mxrvpyOdqTaPQSNuyYmwjJ4rNFjXL8JYKka3DW1oOd5d6JV0Nhc1MybVMJwPqWPtWUTp34opA00ObBDan9DdoRqxeOlXQBm0+Wf0WDszl9k/oUj4CODnqH/JJACwELvAPeOj808fQi9i3D17bfHJr6CknbgpqBe1DEyLX8L1ldT6pFSyhtW35pJy7CNbNjZvcSYih/LLbSr5irJYkHdvcZqEMYB5Vke3YaRAuqv+dY/pfJ13opjjVjDcSZ6GZOz23G5xC27JibFNOXNQM3Yjda1qemkTJ3QtnSSdDI+Hc8iO+6V25l9RgvdPmmRp0OGCHRY7r5A6M0bcfqC1L/XBuGvx6R22F2EJtSsidzLcWiLbPPTEd8BJay0cAJ0f9Qz4JgIXABf4BD71/2oRKA1ATlAuD4HiW8zSE8NQE0IOgVmgumhsXmohZqR2oFZoT5Sp6RyVobm+z0lQeEIP7rkJ34+YepbV+TLqbmvRk0mZXuQ7gmZH8s20VMrfT9nk8p+qH7gbz7c+c1rhIMdbVCl1NbbAp72dqQDgx/v6e4rpHb968Vk4x1xVGj8y4w4HJsASWxsgtNKfouNVrCfWO6sBqC9Ky6Uwor7d2ONi/wIP6h3wSAAuBC/wDHhb+MQGrBJ35u0QbW8txKO+D4xTua/TfBb4JG0DLcalvy+21TLk0PgqyTQc0pLa9jXehOZgGzXJQW5PGU50YRmsC0xJvfJn72dP7zm9Le2Z1Zm3aUW1v4YxI/tm2CplutynieMr03pMD8z2aRqTCwGnDRqQwt1BHXgrt8OZjOzVtaxOk/zqDckWdneb0eIlyI6FaU567Ya8+zyfN4JSrL+8olsfxMZVT9/Klt+eTTeOHI1wiHwGcHPUP+SQAFgIX+Ac8jPwjIWYoD5Go/F2HHPvG7CWVX3/DBK+pcg7uc9wcpYF1Qwpq8ylybqxWI+mANKJxfMoogh67+co4yK4d0Ch80YKG7DZo1tsMGlbosPWzmuQhF+am7FB0b9Wbmo1SZNlmxHRjlnKcIqEb+t85NeUzmYxgEidjMK0QK8sfrVncrx1eO4YpC4qyjYSXYQwXNss1dXgXFdRFM8TPejvN6Ts+MqbD9VwzLANqz6/fMFesl7v2erjEov1wL9rbOgu1z7lZva7NRQ9GuGI+Ajg56h/ySQAsBC7wD3jAPz0hjN6aRUAh+edQLmqTT1jQZbB7JTwIh//AgvUHPKh/jjef/O2tqw8lvvzab3PZmL6feSsyn8YJ9oO3TZ9HHgzpwOZFRz6akrXjkMsTjDgFC+30OeuA/Bnn2tPhNNjsn/5z7vhRfeOfUH/Dh9C5tZMiy4ja9aTryebP5h1kP0fKkrj59i8BvX9AvEEOsyvJP4dyEfnkFg4YsIV1+BRCwd45ffyjBwl5GU7JGm8T7Zjkb6eXp5hNar7H1W93m23CdKPpQ21zscmmcjVz3owIrpyEUU0HR5pPxmTyhZ/G459+66GHvpUOx/T97B+GZQAXDXeQaGkD0p/NSwP55FlxxBZiyTsHbPFPflmQl0/YP4+2ZXK703chnLLYzo17z4r41JBPLjjDrfZ4EdNealfsTvLPoVwkE3HW+WRc0AY66cJ4EA4TsMVF+3TC1DCS+SiRdxyNf0wg1BwH5OVyFlIGqGMSNrjR7hPPLTc4+wRTykv7dqM09WfdM/NiPVy3G4Kr/aD+Oc588revffmhq7fKt5JvvqC55ZDJwyCGi2bqHoBIs0RGW6flSQ0dNzP5hyvLZSs951G52VCS/mFJaUEMmuukq9RLWN/nOvZpkdPDW2e9fF8ywizko8TJLNRsJ3Vtal3RlE+sJUtkLJTfUJfbzEuedGm02sIxEKYsHyU6/1SrCLHQPuPGXbLVZQ/kPa+W5Nh6sbYI0ubNtC6FwlF8I+3oJrrdrmJFXcqu31wsX4G6gsVL184MSd6WPzhea0oLeXzMU3AJCSOTjwBOTvIPLoJ19M7p9i+7Q7V7mbAsCac3/6ZU22mpW9IGur2shEPdRUuHuzbj5iW7mG5nkbLvEFztCfXPOfj3kyf+fjJYLXto5LyeGBVlM5ljOUvLxdMlkLL+LsexskZaNUQLVH+rifOx1q9ef/1GLAzvbn3MYJ/4LGQt0QboQ1dMrCUVylKYgu/YZjFD9gYcI1v80zz7YcZlQsMUlwkNJbGarBVqMzGGLgu6nkzWlmSYsmiY8hE72VUXpWjLUt/0UCrknsjd2eR2yJ2bepVasz5f+XG4pPT+ATgJyT+4CNaxy/5ldiuNXoakDc7uMuH0Jx4tHz7qubrFnADdPro9rpQ3+2MgV7P9F8qlQ3lshODKh/rnqPPJ8k8oN305GdjSz83R1cSX9SDSRFfWr4mmcniQ6omBcG40q3i6hmVNI/0pcMq4LNQsnV2AXqd1Vm6WttpIrGNewnGzdamU2U97Z5jZZANdBGSuB+6q221dLmZri6k8W6MqO9lVG2xb03PbnsgD0nRsSnsVSJz5VgvnmuQfXATr2OacNh+LwUk4JapfzMN+EWvaXUaOy+nSVNpZ0uYlG02bZ26gbnOTELrus4m8t7bBld2OYR+of87B95Mf3n3t6kNXX5vHR1v6uTEZaKOlQImTJtFVNbTFVm4etqz4LFVPy0X7Ov1jCadJmIJ8NGSjhdql0ziqtdCsvDiqGC/TtAlHzhb/BMr+F2xQdtYwxWIqMUa/BZZlIZXr3jldW5p1qTptzE521Qbb1sq5Utk8Ee25m9i95mUizGM+Ajg5yT+4CNaxzTltPqlIXBS3Id0gwvKej+cBTNkCZIupdWqeOSPWL5uO7omZcDlpc7SZhlPIJw+L+uc85JPdP6dcsKWfGyOYReyVfdmdpdGVjdsqtvL0cm0+2VwUzhiPhXYM0GflxVHFeJn5cgzHxw5LZZjQtLE1Ux+mOPw3b9VijLrF1qWmySfHPmzWJdnmTbLXs5NdtcF2sSrnSmXyyb1xNFstnEuSf3ARrGObcyb5ZEY3FLu7bQhgwltSrW58ibxtyYmhP6K678T9yO443R5XtpU+tM7V+v432yW4Uf8cZz75U/kNPG/mF958cvwwFLtPfNnFPZPoqtBUnj1I0o1cviXgg9PGZaF2xmcB+rbA3dgjIHWGLoJjZJelMkx0/L019cEPloi/eCmbQRxiNrm654XlIq85s7Wl2yBH1arrdrLrZMWznq+V44JmXm6gvQokzm6rhYtA8g8ugnXsHv+020GivBuDltCUlZQPYmx52e1386hY2u8v2u0jukW2jegl2v2xjbXATZjodHCk30/Kv5wsf3bS/u2QIdv7GY1u8gGJiopBo1mz1cxx61djRxuN2QepVhYTV09rfWtie9ENDxKcEvuzkClfumJU3gTuxQZSuEwJ4FjZZakM8/voY8ufxqk7ZXVINkMxlW6WrUnsWtTul2lJMf5JF8oVdrJrY8ty9f6KuTw2aM7dRHsVSOziH4AZyT+4CNaxzTmywpfgJ24Z/V6zDF/rTpGOy+l9U6WO3ZUazEbTYLY82+akfbvvEG/vG/XP8f68q/xa14zv9/Fk4mNQVAyXiFZOb6mhJ9GVkIIzW38RJEn9UkejuiZGbPqDuc+YMAv5aBNzC1VL3Lij0X/rihqXz62ltrFfW8HxE6YsH20gmkRXg0i3iTYLkUkdk/GyH4ZrS7NAJaonm5rCDnbVBmf5pO1t973rJtqrQCKMYT4CODnJP7gI1rHNOTZJC5h9KmiU7LU7RcDETs0+NSsvtLtY0nIDmrXZBGnxM9YoNqA9E0Y1HZyLfz+5hfPSTzhajs9CYU1k1Ts3XPYlSHZ9PhRbD1sYeEj+wUWwDpwDHtQ/5JMAx2Ch5iPA9kshOHYu3xLUfPw8+HYUTsLcP7Is6Djnn3BpdOPO6CN8UZ6R2af4s3LD5BN9043Zhwgn+OpgdFPp3fyZmi6GwWbmGw+ohBHT/zaUGWy+qNkd5+mZZq04C5qHaBe2LmilQm/Rc8rAOQA7o/4hnwQ4DgvZuJBk8lxxGZegmmyU2GuW2PDV5TbCKOWjhpyVTUJhCdPbQH8QN5vIWN7V+rPyisxmSSNlrsskmuNZGD1p3B5Pc4yYXqb2l8F6KMFLA5J/li4KEzGY2Z1xnn40DJ4LJ8Xh5JMA1T/kkwBYCFzgH/Cw9E9Mq0LMemOWd0lE24ewi7jZ5oSBkAqmU2blJs0zOWFAW7Y5YSDH04EaUs8at0lpql/bL0gdvYXSeCgsNcdnXXqSf1oXyUyJheoHOqZExzBM1mM3XwlzbQuFladn34rUA9VUtpH4j65TnTjRN/XzqfFHBmnqxZbp9NfNtWrPbbeTUWuJ/Swj1yknhqbi7yyQwtCyMf+yQaHLJ61FzyPh1vIRwMlR/5BPAmAhcIF/wMPSP3dv3oxRtY3FDV3OlpHYt6ncpnD1rFl5RZqy302ZANpeoq8mTBqX6N8mwF21gNS0rYXGY4XXb9RCqdOeBcU/SxeFWStDF/MimyOl437MG056ejPFdX6rZ8RFuUJsJLsuJni2PF+oIWWPqZ2cSdY+pHaac2OdWl5Maw0s5anzprJQ3D5r0FZYWPQcsnQOwO6of8gnAbAQuMA/4GHun3E+WcLZDhs3R0JMb1M4aS0GxLPySt+UBNNyxb6mSTkKk8ZLC4U+M4yxe3PikPGAXHKSf5YuqrPTZe+ag9VkbMAJT595Q6esrSBtppfNnIpPRjZoypvrLmyfqHVqhZkJu4uOny9z0XGFcwv7F3hQ/5BPAmAhcIF/wMPcP8P0aVgYOMf5pAToTXo5QzrWX/HSk/yzdJHOTpcv1XlsErOek50ux/VHQ5OafLKdcXNuqRBZXCvTlDdN9V6NXkpK7dcK5i3V9nxy0WBf4bwTbi0fAZwc9Q/5JAAWAhf4BzzM/dOE2pnuy6LKKJ8cRvCz8kqftpUAuuvPKLubNN7nCbaaHHcdmBJ60l/x0pP8s3SRjtWJE8KYLJ389OEkFs9IhaHrGlPptcRyJotr+tA0tUgXU7XaflthlAd2N6jVJg1O2zmnhHvMRwAnR/1DPgmAhcAF/gEPc/90+Zswj2UX+aSJgIWQti0iY0HLDe1VtOUugSx5hWXWuE0gUwSf2pf6u6eIXQdASP5ZuihMYh6rdvDrHHWT1XLC0wdejWh56xZpM71sTlzkrpkd8sm2/dq3+lzs1Hg1/6zBDc/guYT9Czyof8gnAbAQuMA/4GHunybUjmxIqGrcrJjAtzlxVl6xqYJNJ8zxLDqfNG6P9b6k8CSh+XJAIPtn6aIwEXbw7aTk4yYh7Dnp6eKHmubpTNUpE2Nkw8RG8rnNnO6U8sl1h/mktiPHpX2tkMvV7dpmd9Fi4FmD1uEXAfYv8KD+IZ8EwELgAv+Ah7l/bESbWJYoNm5WUuAe1UTAw/K2cUkdU50m5YhpQyrXmL6LyGcXTUG5KMf0khiUmlazYL1JJCATRkz/azEJYWA0Kbvmk4GdTpdEK9VpM7FyXBuJfy8kTWXjui61U5rycT7ZOVaaTf3Pjk3dtpYrDXYXrenipEHySQBF/UM+CYCFwAX+AQ/4Z0dC3G8yHMgk/5wzF/HRwNHA+gMe1D/kkwBYCFzgH/CAf3bjjWtkICOSf47eRc33kBfsK75zDesPeFD/kE8CYCFwgX/AA/7ZhZCBaDYCluSfc+Ci+uOjJJNHxDlwDhwx6h/ySQAsBC7wD3jAP+Ah+QcXwTpwDnhQ/5BPAmAhcIF/wAP+AQ/JP7gI1oFzwIP6h3wSAAuBC/wDHvAPeEj+wUWwDpwDHtQ/5JMAWAhc4B/wgH/AQ/IPLoJ14BzwoP4hnwTAQuAC/4AH/AMekn9wEawD54AH9Q/5JAAWAhf4BzzgH/CQ/IOLYB04Bzyof8gnAbAQuMA/4AH/gIfkH1wE68A54EH9Qz4JgIXABf4BD/gHPCT/4CJYB84BD+of8kkALAQu8A94wD/gIfkHF8E6cA54UP+QTwJgIXCBf8AD/gEPyT+4CNaBc8CD+od8EgALgQv8Ax7wD3hI/sFFsA6cAx7UP+STAFgIXOAf8IB/wEPyDy6CdeAc8KD+IZ8EwELgAv+AB/wDHpJ/cBGsA+eAB/UP+SQAFgIX+Ac84B/wkPyDi2AdOAc8qH/IJwGwELjAP+AB/4CH5B9cBOvAOeBB/UM+CYCFwAX+AQ/4Bzwk/+AiWAfOAQ/qH/JJACwELvAPeMA/4CH5BxfBOnAOeFD/kE8CYCFwgX/AA/4BD8k/uAjWgXPAg/qHfBIAC4EL/AMe8A94SP7BRbAOnAMe1D9b8kmEEEIIIYQQQmioC/L95D/+4/sIrRYWQh7hH+QR/kEeJf/gIrROOAd5pP4hn0SI9RS5hH+QR/gHeZT8g4vQOuEc5JH6h3wSIdZT5BL+QR7hH+RR8g8uQuuEc5BH6h/ySYRYT5FL+Ad5hH+QR8k/uAitE85BHql/yCcRYj1FLuEf5BH+QR4l/+AitE44B3mk/iGfRIj1FLmEf5BH+Ad5lPyDi9A64RzkkfqHfBIh1lPkEv5BHuEf5FHyDy5C64RzkEfqH/JJhFhPkUv4B3mEf5BHyT+4CK0TzkEeqX/IJxFiPUUu4R/kEf5BHiX/4CK0TjgHeaT+IZ9EiPUUuYR/kEf4B3mU/IOL0DrhHOSR+od8EiHWU+QS/kEe4R/kUfIPLkLrhHOQR+of8kmEWE+RS/gHeYR/kEfJP7gIrRPOQR6pf8gnEWI9RS7hH+QR/kEeJf/gIrROOAd5pP4hn0SI9RS5hH+QR/gHeZT8g4vQOuEc5JH6h3wSIdZT5BL+QR7hH+RR8g8uQuuEc5BH6h/ySYRYT5FL+Ad5hH+QR8k/uAitE85BHql/yCcRYj1FLuEf5BH+QR4l/+AitE44B3mk/iGfRIj1FLmEf5BH+Ad5lPyDi9A64RzkkfqHfBIh1lPkEv5BHuEf5FHyDy5C64RzkEfqH/JJhFhPkUv4B3mEf5BHyT+4CK0TzkEeqX/IJxFiPUUu4R/kEf5BHiX/4CK0TjgHeaT+IZ9EiPUUuYR/kEeb/fPOS4/f88jL7yzKq3707JYK+9PtZ+6755mfdIW2A+MKK/SLlx++99nb//irFx+576kfxUvIS3lLBuTe+6Ief/EX9RRTnmtG/eSpXNh1rJZL+7W80aRN6VUqf/ilX2nls1Lohv63Kk+KdDV2Ug9MndOSDGMefBn2DQN+SjrFR2YqcXgysI5JcXtX88DqnYPQSaT+IZ9EiPUUuYR/kEeb/XO+8sk9KQTWKdQuEXbJJ2OCV1K7UtgdmxGTSL0kUTahMuU1rF9o3Ka0c1TZUfJP76I8KXrX9vZPWyafPA7lwVmUn6YGxituryWnIfYv5JH6h3wSIdZT5BL+QR6N/COJSii/597Hn3rG5JOS4eRvxnKqU0tsZpXrTGLTmBGVOibFevzFlxatBUngmwufWuaTbQc04UwphLyM74aexFQwvqwtmJ7Y+D60meuUCDv0ocmO6unxHrvyeC8hUpe+mRsJL9NVmvLuXNWkzTYN2Nv3sQ6F0dP/VpWbDT3sh0hu4dkXdTrMyOt81fGJlW/LiMVye7Na2Dqta6TOu1yoycDrW3U65j5cqpnHvuV8s6aTuXItyeeabjQz+9RLyfld1pffTac8/NJPigljoY6P9Ykc5/q1tVoh9VwmqLT5q6apqUX3o3DFrgSh3aX+IZ9EiPUUuYR/kEcL/0h8aUL/EvFLHKyhrdTJEWco15TARtg2oq2KYWsJVWMkXYPa0o6pEzuQw/QUiNcwt8h0QOPgFKOnE3O8XhtMV2yiZBNAS7kmBrefiZXDWcvr1hRCD5LG8bd0QwdKNR6loF3a7OqcjZJ/eheVEcsDaPsf57SMttxCKrfjU49T5aUxJk4bNiIH5nJpxKSwyejSsVQYXG6sULnMXTRnmaBwYiyXQp3c2LJ2ftHJ0kjuUswYyw22sj2P1fIdNUmgjkkcwGKSeEfpcnXQdEzk3VyzH95xT/ai3jkInUTqH/JJhFhPkUv4B3nU+8eGkl28a1SD1xocm3g0Ss7dFI4Pg1qRXrS7ehMxq0x0rhWaE+tVgkonzVlRmhuYJGGjzCX6U0I3dsj9pCQM/qJm0uY2Y2JQs7KzVPLPtlVIOpz730zHZMpUbeVizpnTloNs3w3HWqGrqd1rysddMtJJCTUffubZ+CV27PPoLL1T473pLNfKvcxIBsn45A43p3TjVlTvqFbQW7ajWsfBjN5BtM05CG2S+od8EiHWU+QS/kEedf7pY+gu74rxazhFNAiOy1uqSSQqsW+u0wW1Iu1DF1WPQ1vTQ63f3IX0WTPkHDRLBe2k7UlTeap4usbr06ygKI7MhqEYvLW1TVFzm2ekMHT637lMFtSmOub21T/mxrvpyOdqTaPQSNuyythGThSbLWqW4S0V9MSNw1taDneXeiVdDYXNTMm1TCdDiTrWvlWUzp24IqjpoU0Cm1P6GzQjVi+dKmiDNp+sfgsH5nL7V+hSV4LQ7lL/kE8ixHqKXMI/yKPOP30MvYh9++C1zSe3hp5y4qagVqR9aELkGr7nl1mr80mtYBVa25ZPyrmLYN3cuMmdyruDbqvyFWO1JOnY5jaLygDmURXZjp2GwkX1v3OZ/tdJF3VTnGrGG4mz0MydntsNTvduX25sU05c1AzdiN1rWp6aRJW7F86SToZGwrnlR3zTu3IvqcF6p80zNehwkB0WOa6TOzBG335QbVnqh3PT4Nc7aivEFmpTotzJfGv53NwN2wGvQmtdCUK7S/1DPokQ6ylyCf8gj3r/tAmVBqAmKBcNguNZztMohKcmgB4EtaLmorlxURMxq2oHaoXmRLmK3lEJmtvbrGoqDxSD+65Cd+PmHqW1fky6m5r0ZNJmV7kO4Jkp+WfbKmRup+3zeE7VD90N5tufOa1xkcpYVyt0NbXBpryfqYHCifH39xTXPfzSy0+VU8x1RaNHZtzhoMmwBC2NkVtoTtFxq9cS1TuqA6stSMumM6G83trhxP6FPFL/kE8ixHqKXMI/yKOFf0zAKkFn/i7RxtZyHMr74DiF+xr9d4Fvkg2g5bjUt+X2WqZcGh8F2aYDGlLb3sa70BxMg2Y5qK1J46lODKM1gWkVb3yZ+9nT+85vS3tmdWZt2lFtb+GMlPyzbRUy3W5TxPGU6b0nB+Z7NI1IhYHTho1IYW6hjrwU2uHNx3Zq2tYmkv7rDMoVdXaa0+Mlyo2Eak157oa9+jyfNINTrr68o1gex8dUTt3Ll96eTzaNH07hEl0JQrtL/UM+iRDrKXIJ/yCPRv6REDOUh0hU/q5Djn1j9pLKn/mJCV5T5Rzc57g5SgPrRimozafIubFajaSDpBGN41NGEfTIyy+Og+zaAY3CFy1oyG6DZr3NoGGFTrZ+VpM85MLclB2K7q16U7NRilq2GWW6MUs5TlGhG/rfuWrKZzIZkUmcjMG0Qqwsf7Rmcb92eO0YpiwoyjYSXoYxXNgs19ThXVRQF80kftbbaU7f8ZExHa7nmmEZqPb8mWfNFevlnvpRuMSi/XAv2ts6C7XPuVm9rs1FD6Zwxa4Eod2l/iGfRIj1FLmEf5BH+KdXCKO3ZhGoKPnnUC5qk0+0UJfB7lXhQTj8BxasP8gj9c/x55M/feGhh154M78Y0j8MeSsyn8aJ7Advmz6PPJikA5sXHfloStaOQy5PaKRTsNBOn7MOlD/jXHs6Og1t9k//OXf8qL7xT6i/4UPo3NqifItkGVG7nnQ92fzZ/BrlLyjss1OWxM23fwkUxqQrufQK3iCH2VXJP4dyEfnkFh0wYAvr8CmEgr1z+vhHD1IFeRlOyWq3ifq1bbNnmVMWW2Eqtxti/TpXpF/hEggdqcI0pYNjzyd/+q2HAt58sg/gYqS132hpu6Q/m5cG8smz0hFbiGX0HGiLf/JL++7j9s+jbZnc7vRdFE6xa0jv3lNX7EDpj65vZUmU3pJP9oWXXeKZS+2K3ZX8cygXyUScdT4ZF7SBTrowHkSHCdjimnk6YWoYyaYk7zga/5hAqDnOL3UWYjKZn1n7iaQ5NqePN4V0vHzwCYSOV+qf484n33zhoW+9sPb7Sf1op3sAopolMj4SaXnSpzduZvIPV5bLVnrOo+qDkf5hSWkhPlepTrpKvYR9LHMd+zTK6eGts16+L5nCLDQlJ7NQs53U9a51RVM+sZZ+LCe/oS63mZdR6ZKaEx2ZwpQ1JZ1/qlVEsdA+48Zd4cTkClHcU2tJ3mIXa0tp86W0LoXCxpBZ0k5qYSe7ihV1KXvm5cXyFVRXsHjp2pml6lX0ZV7oyviYdy+hwhh2JQjtruQfXITWqXdOt3/ZHardy9oSUy1Id5zulNL4ZFOYbQcEQscr9c8x55M/feGhF3664uddgx2j4fLfIFo+AI1iVJQNao7lLC2XCKw8JzYaK8exsj5IzXNSw7gSPJVjra+hW6gcC8O7OXZEpyOfheYB+tAVE2tJhZIziCVym8UM2RvyLjo2bfFP8+yHGZcJDVNcJjSUxGqyVqjNxBi6LOh6MllbkmHKomHKR9rJrrooRVuW+qaHUiH3RO7OJrdbpY3X5ys/DpdUvX8QOomSf3ARWqdd9i+zW2n0skm6yPf7kWw0g83C1n/4keVnpgRCxyv1z/Hmk7+9dfXqrd+u+feTnTZHVzOvt6ZvoiuN51RN5RIdlnfDufEBMDFluGjTSH8KOmW5LLQpQK/TOisv1rIpR6pjXqLj1hb/pNlPm2WY2WQDXQRkrgfuavbjvFzM1hZTebZGVe1kV22wbU3PbXsiD0jTsU1qL4SCtvoHoQ1K/sFFaJ22Ocfmkzk4CadEDVZy2TLkrbKp7RLumk0hnm7OZbM4eql/jjWfvPva1S+/FrLJQ+eTi9ireH0SXdm4rcpWbh62rC6fLM+bFc/MWSpMQVfSaKOFdgzQZ+XFUd0i27SJjlxb/BNU9tRgg7IxhykWU4kx7JJiF5BUrvvxdG059XxSKpsnoj13k+It1NAERYV57EoQ2l3JP7gIrdM257T5pEriorgNDbcb3RR0/8rqQp0tm8I45EbHJPXPceaTv33ty1dfu5uO3fnkxlhnEXsVr7dnqafH5raVp5dr88nhE4jOSB4L7Rigbwvcu0W2aRMdubb4RxQmNCRgYRFopj5Mcfhv3krFGLI9p3mvS02TT4592KxLss17P/7QBtvFqpwrlU+eT8YbJJlcagf/IDRV8g8uQuu0zTmTfDJrFquUs7r9qNsstm0KsgEtQ250TFL/HGU+efe1q/JbXRviz76OWfUwlGdg5vXW9JPoqqipvOnpyuVbAj502nJZqJ3xWYC+LXA39sh1hi5Cx6ht/hGFiY6/t6Y++MES8RcvZTN0G2dNETWfnK4tprJoVK26bie7TlY86/laOS5o5uVQUgdLj7WLfxCaKfkHF6F12uacGv+020H3brfvlPJ2ZzHb2XBT6GOtsBMtQi90XFL/HPPv40m4v58MitG5MaX4vnha7FtCMXM8ia7aZ2b8wMgjV6NGrS+V7Yk1/pOHivTyLLU/C5nypStG5U3gXmwghQTf50fb/RPnV37NgD71QdFUurnarTqaoZjKbMDWJHYtMgtUVLdPpwvlCjvZtbFluXp/xVweGzTnDhQ7gJ9n2sU/CM2U/IOL0Dptc46s8CX4iVtGv9fkLWmxhZl4xuw+uanJptDsccTG50Hqn8uRT4riY1BkEoOgFA9F6XMyia7KW239tnKQ1C919IGJz4m2Y/vDA3PGCrPQlYw0t1C1xLO3NfpvXVGX2rm11Db2ayt0/ApT1pUMFE3Sbp82tSsvk5HSH5jJK0MyXvbDcG1pFqik6smmZvvW1K7aYPWtSHpSmqq97b53Xcr2Oau2icgEkEvJP7gIrdM255gksLyUNXy0kpul3u4Izda2qFlUmsqhsogo6BwozFQ6OP58cjt6Mwit0/FZKATurKTnRpd9CZJclA/F1ostDHmU/IOL0DrhHOSR+od8EqFjWE+bjwDbL4XQsevyLUH2i8rRt6PoJGILQx4l/+AitE44B3mk/iGfROg41lP7A4okk+dKl3EJiv9EMyslk+1P2Brx1eUWhVHqSorkY6bJzyqXj59mw54z/MFPmm0sN6pT3PyshPlptNnMzhqv/2Sg+eysFKriu/lnNPTDtdvx9yGb1lBWGDH9b6Myg+aHFU+m5ocSt+9KzcdMI22t0Ep/Gv9k6p2zqIAahcntShDaXeof8kmEWE+RS/gHeTTxT87KTPwt4XjJDZah+SL5bL46lnc1r5iVV0maWtJISUtK6miOZ/H6pHF7PM0rYnqZ2l9mBaGEzyYGSv5ZuihMxGBmd5aZx/Jyy/hPp7Voa4VW5JOnIvYv5JH6h3wSIdZT5BL+QR4t/RPTqhDNP9vE3zbHG2QLi3yyrV+j81m5CffbXEJb7pLPHLiH4xq7zxo3iWiub3KVLKmjt1AaD4Wl5visS6/kn9ZFMlNiIVEadlOiYxgm65GXX5REsUkdo5a538QedcabCg+/9JNyRfVDrPBM/ta0yU7j1DfltaRUM3Vqx+TqudB8WtE7B21QGLquBKHdpf4hn0SI9RS5hH+QR0v/vPPSyzGG7mJ6eTn/im+RT0r8bUJ2jftn5VrS542aP3QX7auJJo33XxZ11YJiYmBaC43HCj96thZKnfYsVPyzdJH5xCEmkzm5Msf9mFvFanbKjHbJJ0N/slVkrmuF0qbpRq1Q6mi5dsAaZnRFczxyDpqL/Qt5pP4hn0SI9RS5hH+QR3P/2HA5KUbh8m2Mxt/NW01lG46LQmvxrFl5LembKl8M9jVNxlI0abz/arHPDON9NScOtRwQlP2zdFGdHZuMBWk+VhOzoWS0o9lMchi1Uz5Zp1smN/akmb7+I4aiem710gZD4gevls5BaHepf8gnEWI9RS7hH+TR3D9tuCyBu76Ut9pc7hznk5JC7PTFo2YmXfmlVvLP0kU6O4vMrczjlnyyKBovtK9z1KSLk3zSTlOpXysE9b2qV1nmk3JifksV60gj5iVaoTB6XQlCu0v9Qz6JEOspcgn/II/m/tkYf4doe/EVX59PDr+VmpVrySJtG+YD4+xu0vimzsvxDllNVJeooKDkn6WLdKx2yieX6VyvOt3FD7G8NlLt0U3T0D+1V+XSem5uPBjD5JONtzuJhaQFvLFCYdy6EoR2l/qHfBIh1lPkEv5BHs39M4m/k7rMbZlP2mwhSKPzWblRkzDUlrsEsqQl+WXUrPG2t3Ivqf2YS+ycBowy2Euv5J+li2pS11lF56ibLKvulCh1RWOP2kiTT3b+iT0Z+7maIaqeW52507z3DwjaTexfyCP1D/kkQqynyCX8gzya+6f9WiamXuWlvNVG2Jr1VZmwvonIZ+VVNtOwqYU5noXvk8btsd6XFNpcYpvaAUFRyT9LF4WJsINvJyUfb8gnUzU7v6ayTH2xgUz3MJ8c+KeZviafLBeKLZfu1XwyNaJdVS/ZBrUwvUS7iv0LeaT+IZ9EiPUUuYR/kEdz/yzSp5hShvqiPg2TeHqRa8WsYFB/WN5eTiL4VKdJOXLEL6rfX9mUYH5RaT+V57jf3o5Vf2tFUr9eFCWFEdP/Wpl8Mmg0KZvySVFMC1V25GtrT/0oTOson4x/7SbW0Us0BjOeafoWDVbzTz3dGM/cV3Xp3DZoo8LQdSUI7S71D/kkQqynyCX8gzzCPzsqZBR8AbVU8s9RuSjmk2R350OsP8gj9Q/5JEKsp8gl/IM8wj+76SdP8eXkSMk/R+Ui8slzJNYf5JH6h3wSIdZT5BL+QR7hn10UUpTFT/MiUfLPUbmIfPIcifUHeaT+IZ9EiPUUuYR/kEf4B3mU/IOL0DrhHOSR+od8EiHWU+QS/kEe4R/kUfIPLkLrhHOQR+of8kmEWE+RS/gHeYR/kEfJP7gIrRPOQR6pf8gnEWI9RS7hH+QR/kEeJf/gIrROOAd5pP4hn0SI9RS5hH+QR/gHeZT8g4vQOuEc5JH6h3wSIdZT5BL+QR7hH+RR8g8uQuuEc5BH6h/ySYRYT5FL+Ad5hH+QR8k/uAitE85BHql/yCcRYj1FLuEf5BH+QR4l/+AitE44B3mk/iGfRIj1FLmEf5BH+Ad5lPyDi9A64RzkkfqHfBIh1lPkEv5BHuEf5FHyDy5C64RzkEfqH/JJhFhPkUv4B3mEf5BHyT+4CK0TzkEeqX/IJxFiPUUu4R/kEf5BHiX/4CK0TjgHeaT+IZ9EiPUUuYR/kEf4B3mU/IOL0DrhHOSR+od8EiHWU+QS/kEe4R/kUfIPLkLrhHOQR+of8kmEWE+RS/gHeYR/kEfJP7gIrRPOQR6pf8gnEWI9RS7hH+QR/kEeJf/gIrROOAd5pP4hn0SI9RS5hH+QR/gHeZT8g4vQOuEc5JH6h3wSIdZT5BL+QR7hH+RR8g8uQuuEc5BH6p8t+SRCCCGEEEIIITTQvff9/2+iFGyvmqcWAAAAAElFTkSuQmCC;" vertex="1" parent="1">
          <mxGeometry x="100" y="140" width="1151" height="441.17" as="geometry" />
        </mxCell>
        <mxCell id="_yOJiTir0vfg7I-NglbO-3" value="" style="rounded=1;whiteSpace=wrap;html=1;fillColor=none;fontColor=#ffffff;strokeColor=#005700;strokeWidth=4;" vertex="1" parent="1">
          <mxGeometry x="160" y="510" width="700" height="60" as="geometry" />
        </mxCell>
        <mxCell id="_yOJiTir0vfg7I-NglbO-4" value="" style="ellipse;whiteSpace=wrap;html=1;fillColor=none;fontColor=#ffffff;strokeColor=#006EAF;strokeWidth=3;" vertex="1" parent="1">
          <mxGeometry x="881" y="505" width="360" height="80" as="geometry" />
        </mxCell>
        <mxCell id="_yOJiTir0vfg7I-NglbO-5" value="" style="rounded=1;whiteSpace=wrap;html=1;fillColor=none;strokeWidth=2;strokeColor=#6316b1;" vertex="1" parent="1">
          <mxGeometry x="130" y="310" width="40" height="40" as="geometry" />
        </mxCell>
        <mxCell id="_yOJiTir0vfg7I-NglbO-6" value="" style="ellipse;whiteSpace=wrap;html=1;fillColor=none;strokeColor=#FF0000;strokeWidth=3;" vertex="1" parent="1">
          <mxGeometry x="294" y="130" width="226" height="70" as="geometry" />
        </mxCell>
        <mxCell id="_yOJiTir0vfg7I-NglbO-7" value="" style="rounded=0;whiteSpace=wrap;html=1;fillColor=none;fontColor=#ffffff;strokeColor=#A50040;glass=0;fillStyle=solid;strokeWidth=4;" vertex="1" parent="1">
          <mxGeometry x="116" y="370" width="1119" height="60" as="geometry" />
        </mxCell>
        <mxCell id="_yOJiTir0vfg7I-NglbO-8" value="" style="rounded=1;whiteSpace=wrap;html=1;fillColor=none;fontColor=#ffffff;strokeColor=#001DBC;strokeWidth=3;" vertex="1" parent="1">
          <mxGeometry x="210" y="210" width="650" height="60" as="geometry" />
        </mxCell>
        <mxCell id="_yOJiTir0vfg7I-NglbO-9" value="" style="rounded=1;whiteSpace=wrap;html=1;fillColor=none;strokeWidth=3;" vertex="1" parent="1">
          <mxGeometry x="900" y="210" width="310" height="60" as="geometry" />
        </mxCell>
        <mxCell id="_yOJiTir0vfg7I-NglbO-10" value="&lt;font size=&quot;1&quot; color=&quot;#ff0000&quot;&gt;&lt;b style=&quot;font-size: 15px;&quot;&gt;Hit policy&lt;/b&gt;&lt;/font&gt;" style="text;html=1;strokeColor=none;fillColor=none;align=center;verticalAlign=middle;whiteSpace=wrap;rounded=0;" vertex="1" parent="1">
          <mxGeometry x="360.5" y="100" width="93" height="30" as="geometry" />
        </mxCell>
        <mxCell id="_yOJiTir0vfg7I-NglbO-16" value="" style="edgeStyle=orthogonalEdgeStyle;rounded=1;orthogonalLoop=1;jettySize=auto;html=1;strokeWidth=2;" edge="1" parent="1" source="_yOJiTir0vfg7I-NglbO-15" target="_yOJiTir0vfg7I-NglbO-9">
          <mxGeometry relative="1" as="geometry" />
        </mxCell>
        <mxCell id="_yOJiTir0vfg7I-NglbO-15" value="&lt;font style=&quot;font-size: 17px;&quot;&gt;&lt;b&gt;Output columns&lt;/b&gt;&lt;/font&gt;" style="text;html=1;strokeColor=none;fillColor=none;align=center;verticalAlign=middle;whiteSpace=wrap;rounded=0;" vertex="1" parent="1">
          <mxGeometry x="1025" y="100" width="60" height="30" as="geometry" />
        </mxCell>
        <mxCell id="_yOJiTir0vfg7I-NglbO-18" style="edgeStyle=orthogonalEdgeStyle;rounded=0;orthogonalLoop=1;jettySize=auto;html=1;fillColor=#0050ef;strokeColor=#001DBC;strokeWidth=2;" edge="1" parent="1" source="_yOJiTir0vfg7I-NglbO-17" target="_yOJiTir0vfg7I-NglbO-8">
          <mxGeometry relative="1" as="geometry" />
        </mxCell>
        <mxCell id="_yOJiTir0vfg7I-NglbO-17" value="&lt;font color=&quot;#0000cc&quot; style=&quot;font-size: 15px;&quot;&gt;&lt;b&gt;Input columns&lt;/b&gt;&lt;/font&gt;" style="text;html=1;strokeColor=none;fillColor=none;align=center;verticalAlign=middle;whiteSpace=wrap;rounded=0;" vertex="1" parent="1">
          <mxGeometry x="730" y="80" width="60" height="30" as="geometry" />
        </mxCell>
        <mxCell id="_yOJiTir0vfg7I-NglbO-21" style="edgeStyle=orthogonalEdgeStyle;rounded=0;orthogonalLoop=1;jettySize=auto;html=1;fillColor=#6a00ff;strokeColor=#3700CC;strokeWidth=2;" edge="1" parent="1" source="_yOJiTir0vfg7I-NglbO-19" target="_yOJiTir0vfg7I-NglbO-5">
          <mxGeometry relative="1" as="geometry" />
        </mxCell>
        <mxCell id="_yOJiTir0vfg7I-NglbO-19" value="&lt;font color=&quot;#9933ff&quot; style=&quot;font-size: 15px;&quot;&gt;&lt;b&gt;Rule number&lt;/b&gt;&lt;/font&gt;" style="text;html=1;strokeColor=none;fillColor=none;align=center;verticalAlign=middle;whiteSpace=wrap;rounded=0;" vertex="1" parent="1">
          <mxGeometry x="30" y="290" width="60" height="30" as="geometry" />
        </mxCell>
        <mxCell id="_yOJiTir0vfg7I-NglbO-23" style="edgeStyle=orthogonalEdgeStyle;rounded=0;orthogonalLoop=1;jettySize=auto;html=1;entryX=0;entryY=0.5;entryDx=0;entryDy=0;fillColor=#a20025;strokeColor=#6F0000;strokeWidth=2;" edge="1" parent="1" source="_yOJiTir0vfg7I-NglbO-22" target="_yOJiTir0vfg7I-NglbO-7">
          <mxGeometry relative="1" as="geometry" />
        </mxCell>
        <mxCell id="_yOJiTir0vfg7I-NglbO-22" value="&lt;b&gt;&lt;font color=&quot;#660000&quot; style=&quot;font-size: 15px;&quot;&gt;A Rule&lt;/font&gt;&lt;/b&gt;" style="text;html=1;align=center;verticalAlign=middle;whiteSpace=wrap;rounded=0;" vertex="1" parent="1">
          <mxGeometry x="10" y="385" width="60" height="30" as="geometry" />
        </mxCell>
        <mxCell id="_yOJiTir0vfg7I-NglbO-26" style="edgeStyle=orthogonalEdgeStyle;rounded=0;orthogonalLoop=1;jettySize=auto;html=1;fillColor=#008a00;strokeColor=#005700;strokeWidth=3;" edge="1" parent="1" source="_yOJiTir0vfg7I-NglbO-25" target="_yOJiTir0vfg7I-NglbO-3">
          <mxGeometry relative="1" as="geometry" />
        </mxCell>
        <mxCell id="_yOJiTir0vfg7I-NglbO-25" value="&lt;font color=&quot;#003300&quot; style=&quot;font-size: 15px;&quot;&gt;&lt;b style=&quot;&quot;&gt;Input Entries&lt;/b&gt;&lt;/font&gt;" style="text;html=1;strokeColor=none;fillColor=none;align=center;verticalAlign=middle;whiteSpace=wrap;rounded=0;" vertex="1" parent="1">
          <mxGeometry x="190" y="630" width="120" height="30" as="geometry" />
        </mxCell>
        <mxCell id="_yOJiTir0vfg7I-NglbO-28" style="edgeStyle=orthogonalEdgeStyle;rounded=0;orthogonalLoop=1;jettySize=auto;html=1;entryX=0.5;entryY=1;entryDx=0;entryDy=0;fillColor=#1ba1e2;strokeColor=#006EAF;strokeWidth=3;" edge="1" parent="1" source="_yOJiTir0vfg7I-NglbO-27" target="_yOJiTir0vfg7I-NglbO-4">
          <mxGeometry relative="1" as="geometry" />
        </mxCell>
        <mxCell id="_yOJiTir0vfg7I-NglbO-27" value="&lt;font color=&quot;#006666&quot; style=&quot;font-size: 15px;&quot;&gt;&lt;b style=&quot;&quot;&gt;Input Entries&lt;/b&gt;&lt;/font&gt;" style="text;html=1;strokeColor=none;fillColor=none;align=center;verticalAlign=middle;whiteSpace=wrap;rounded=0;" vertex="1" parent="1">
          <mxGeometry x="1085" y="640" width="120" height="30" as="geometry" />
        </mxCell>
      </root>
    </mxGraphModel>
  </diagram>
</mxfile>
